<svg width="380" height="400" viewBox="0 0 380 400" fill="none" xmlns="http://www.w3.org/2000/svg">
<rect width="380" height="400" rx="20" fill="#3B3B3B"/>
<path d="M48 300C45.1997 300 43.7996 300 42.73 299.455C41.7892 298.976 41.0243 298.211 40.545 297.27C40 296.2 40 294.8 40 292V116C40 110.399 40 107.599 41.0899 105.46C42.0487 103.578 43.5785 102.049 45.4601 101.09C47.5992 100 50.3995 100 56 100H322.833C328.306 100 331.042 100 332.418 101.115C333.614 102.084 334.297 103.55 334.27 105.089C334.238 106.86 332.479 108.955 328.959 113.145L260.729 194.38C259.199 196.201 258.435 197.112 258.141 198.13C257.882 199.027 257.879 199.98 258.134 200.879C258.423 201.898 259.183 202.812 260.703 204.641L329.094 286.885C332.574 291.069 334.314 293.162 334.339 294.928C334.361 296.464 333.676 297.925 332.481 298.89C331.106 300 328.385 300 322.943 300H48Z" fill="#FFD85F"/>
<path d="M40 300V100H123.836C133.28 100 141.953 100.849 149.855 102.546C157.949 104.055 164.887 106.789 170.669 110.75C176.644 114.71 181.269 119.991 184.545 126.591C187.822 133.192 189.46 141.396 189.46 151.202C189.46 160.255 187.34 168.553 183.1 176.096C178.86 183.451 172.596 189.015 164.309 192.786C175.487 195.615 184.064 201.084 190.038 209.194C196.013 217.115 199 227.487 199 240.311C199 251.815 196.784 261.433 192.351 269.165C188.111 276.709 182.136 282.744 174.427 287.27C166.911 291.796 158.142 295.097 148.12 297.171C138.098 299.057 127.402 300 116.031 300H40ZM76.1364 267.751H119.211C124.607 267.751 129.907 267.374 135.111 266.62C140.315 265.865 145.036 264.545 149.276 262.659C153.516 260.773 156.793 258.039 159.105 254.455C161.611 250.684 162.864 245.875 162.864 240.028C162.864 234.748 161.9 230.41 159.973 227.016C158.045 223.621 155.347 220.981 151.878 219.095C148.602 217.02 144.651 215.606 140.025 214.851C135.4 213.909 130.582 213.437 125.571 213.437H76.1364V267.751ZM76.1364 183.734H114.296C120.271 183.734 125.667 183.168 130.485 182.037C135.304 180.905 139.447 179.208 142.916 176.945C146.385 174.493 149.084 171.57 151.011 168.175C152.938 164.592 153.902 160.255 153.902 155.163C153.902 148.562 152.36 143.659 149.276 140.453C146.193 137.058 141.953 134.889 136.556 133.946C131.353 132.815 125.475 132.249 118.922 132.249H76.1364V183.734Z" fill="#3B3B3B"/>
</svg>
