<svg width="2034" height="526" viewBox="0 0 2034 526" fill="none" xmlns="http://www.w3.org/2000/svg">
<path d="M167.309 410.852V165.715H237.035V191.145H199.984V385.559H237.035V410.852H167.309ZM302.777 365.793C291.352 365.793 281.492 362.958 273.197 357.287C264.903 351.617 258.513 343.492 254.027 332.912C249.626 322.333 247.426 309.68 247.426 294.953V294.826C247.426 280.015 249.669 267.362 254.154 256.867C258.64 246.288 264.988 238.205 273.197 232.619C281.492 226.949 291.352 224.113 302.777 224.113C309.21 224.113 315.134 225.171 320.551 227.287C325.967 229.403 330.707 232.45 334.77 236.428C338.917 240.321 342.217 245.018 344.672 250.52H345.434V179.807H382.504V363H345.434V339.768H344.672C342.302 345.184 339.086 349.839 335.023 353.732C330.961 357.541 326.221 360.503 320.805 362.619C315.388 364.735 309.379 365.793 302.777 365.793ZM315.219 335.07C321.228 335.07 326.518 333.462 331.088 330.246C335.658 326.945 339.213 322.29 341.752 316.281C344.291 310.272 345.561 303.163 345.561 294.953V294.826C345.561 286.617 344.249 279.549 341.625 273.625C339.086 267.616 335.531 263.003 330.961 259.787C326.475 256.486 321.228 254.836 315.219 254.836C309.04 254.836 303.708 256.444 299.223 259.66C294.737 262.876 291.267 267.489 288.812 273.498C286.358 279.423 285.131 286.532 285.131 294.826V294.953C285.131 303.163 286.316 310.272 288.686 316.281C291.14 322.29 294.61 326.945 299.096 330.246C303.666 333.462 309.04 335.07 315.219 335.07ZM447.758 365.158C438.702 365.158 430.746 363.423 423.891 359.953C417.035 356.398 411.661 351.532 407.768 345.354C403.959 339.09 402.055 331.981 402.055 324.025V323.771C402.055 315.477 404.128 308.41 408.275 302.57C412.423 296.646 418.432 291.991 426.303 288.605C434.174 285.22 443.738 283.146 454.994 282.385L508.061 279.084V302.189L460.58 305.236C453.471 305.66 448.054 307.352 444.33 310.314C440.606 313.192 438.744 317.043 438.744 321.867V322.121C438.744 327.115 440.648 331.05 444.457 333.928C448.266 336.721 453.386 338.117 459.818 338.117C465.32 338.117 470.229 337.059 474.545 334.943C478.946 332.743 482.374 329.781 484.828 326.057C487.367 322.248 488.637 317.974 488.637 313.234V271.975C488.637 265.965 486.732 261.226 482.924 257.756C479.115 254.201 473.572 252.424 466.293 252.424C459.353 252.424 453.852 253.863 449.789 256.74C445.727 259.618 443.23 263.257 442.299 267.658L442.045 268.801H408.148L408.275 267.277C408.952 258.898 411.703 251.451 416.527 244.934C421.436 238.417 428.207 233.339 436.84 229.699C445.557 225.975 455.883 224.113 467.816 224.113C479.581 224.113 489.779 226.018 498.412 229.826C507.045 233.55 513.731 238.84 518.471 245.695C523.295 252.551 525.707 260.549 525.707 269.689V363H488.637V342.688H487.875C485.336 347.342 482.035 351.363 477.973 354.748C473.995 358.049 469.467 360.63 464.389 362.492C459.311 364.27 453.767 365.158 447.758 365.158ZM585.121 363L538.021 226.906H577.631L606.068 330.246H606.83L634.887 226.906H673.607L626.889 363H585.121ZM743.686 365.793C729.805 365.793 717.872 362.958 707.885 357.287C697.898 351.532 690.196 343.365 684.779 332.785C679.447 322.206 676.781 309.68 676.781 295.207V295.08C676.781 280.607 679.447 268.081 684.779 257.502C690.196 246.838 697.771 238.628 707.504 232.873C717.322 227.033 728.874 224.113 742.162 224.113C755.45 224.113 766.918 226.949 776.566 232.619C786.299 238.205 793.79 246.118 799.037 256.359C804.369 266.6 807.035 278.576 807.035 292.287V303.713H694.936V280.354H789.516L771.869 302.189V287.971C771.869 280.015 770.642 273.371 768.188 268.039C765.733 262.622 762.305 258.56 757.904 255.852C753.588 253.143 748.552 251.789 742.797 251.789C737.042 251.789 731.921 253.186 727.436 255.979C723.035 258.771 719.564 262.876 717.025 268.293C714.571 273.625 713.344 280.184 713.344 287.971V302.316C713.344 309.849 714.571 316.281 717.025 321.613C719.564 326.945 723.161 331.05 727.816 333.928C732.471 336.721 738.015 338.117 744.447 338.117C749.525 338.117 753.926 337.313 757.65 335.705C761.374 334.097 764.421 332.066 766.791 329.611C769.161 327.157 770.769 324.66 771.615 322.121L771.869 321.359H805.893L805.512 322.756C804.496 327.749 802.507 332.785 799.545 337.863C796.583 342.941 792.562 347.596 787.484 351.828C782.491 356.06 776.355 359.445 769.076 361.984C761.882 364.523 753.419 365.793 743.686 365.793ZM827.094 363V179.807H864.164V363H827.094ZM951.635 365.793C937.839 365.793 925.906 362.958 915.834 357.287C905.762 351.617 897.976 343.492 892.475 332.912C886.973 322.333 884.223 309.68 884.223 294.953V294.699C884.223 280.057 887.016 267.489 892.602 256.994C898.188 246.415 906.016 238.29 916.088 232.619C926.16 226.949 937.966 224.113 951.508 224.113C965.134 224.113 976.983 226.949 987.055 232.619C997.211 238.205 1005.08 246.288 1010.67 256.867C1016.25 267.362 1019.05 279.973 1019.05 294.699V294.953C1019.05 309.764 1016.25 322.46 1010.67 333.039C1005.17 343.618 997.38 351.743 987.309 357.414C977.237 363 965.346 365.793 951.635 365.793ZM951.762 336.721C957.771 336.721 962.976 335.113 967.377 331.896C971.863 328.596 975.29 323.856 977.66 317.678C980.115 311.415 981.342 303.84 981.342 294.953V294.699C981.342 285.897 980.115 278.407 977.66 272.229C975.206 266.05 971.736 261.353 967.25 258.137C962.764 254.836 957.517 253.186 951.508 253.186C945.583 253.186 940.378 254.836 935.893 258.137C931.492 261.353 928.064 266.05 925.609 272.229C923.155 278.407 921.928 285.897 921.928 294.699V294.953C921.928 303.84 923.113 311.415 925.482 317.678C927.937 323.856 931.407 328.596 935.893 331.896C940.378 335.113 945.668 336.721 951.762 336.721ZM1038.22 407.434V226.906H1075.29V250.646H1076.18C1078.63 245.145 1081.85 240.406 1085.82 236.428C1089.89 232.45 1094.58 229.403 1099.92 227.287C1105.33 225.171 1111.26 224.113 1117.69 224.113C1129.2 224.113 1139.1 226.949 1147.4 232.619C1155.69 238.205 1162.08 246.288 1166.57 256.867C1171.05 267.447 1173.29 280.1 1173.29 294.826V294.953C1173.29 309.68 1171.05 322.333 1166.57 332.912C1162.17 343.492 1155.86 351.617 1147.65 357.287C1139.44 362.958 1129.62 365.793 1118.2 365.793C1111.76 365.793 1105.8 364.735 1100.3 362.619C1094.8 360.503 1090.01 357.541 1085.95 353.732C1081.89 349.839 1078.59 345.184 1076.05 339.768H1075.29V407.434H1038.22ZM1105.5 335.07C1111.68 335.07 1117.01 333.462 1121.5 330.246C1125.98 326.945 1129.45 322.29 1131.91 316.281C1134.36 310.272 1135.59 303.163 1135.59 294.953V294.826C1135.59 286.532 1134.36 279.38 1131.91 273.371C1129.45 267.362 1125.94 262.792 1121.37 259.66C1116.89 256.444 1111.6 254.836 1105.5 254.836C1099.49 254.836 1094.2 256.486 1089.63 259.787C1085.06 263.003 1081.51 267.616 1078.97 273.625C1076.43 279.549 1075.16 286.659 1075.16 294.953V295.08C1075.16 303.205 1076.43 310.272 1078.97 316.281C1081.59 322.29 1085.15 326.945 1089.63 330.246C1094.2 333.462 1099.49 335.07 1105.5 335.07ZM1192.59 363V226.906H1229.66V249.758H1230.42C1233.22 241.971 1237.96 235.751 1244.64 231.096C1251.41 226.441 1259.37 224.113 1268.51 224.113C1274.86 224.113 1280.57 225.214 1285.65 227.414C1290.73 229.615 1295 232.788 1298.47 236.936C1302.03 241.083 1304.52 246.161 1305.96 252.17H1306.72C1308.75 246.415 1311.8 241.464 1315.86 237.316C1320.01 233.085 1324.88 229.826 1330.46 227.541C1336.13 225.256 1342.31 224.113 1349 224.113C1357.88 224.113 1365.67 226.018 1372.36 229.826C1379.04 233.635 1384.25 238.967 1387.97 245.822C1391.7 252.678 1393.56 260.718 1393.56 269.943V363H1356.49V279.211C1356.49 273.964 1355.6 269.52 1353.82 265.881C1352.13 262.242 1349.63 259.491 1346.33 257.629C1343.12 255.767 1339.1 254.836 1334.27 254.836C1329.62 254.836 1325.51 255.894 1321.96 258.01C1318.49 260.126 1315.78 263.088 1313.83 266.896C1311.89 270.705 1310.91 275.148 1310.91 280.227V363H1275.24V278.068C1275.24 273.16 1274.35 268.97 1272.57 265.5C1270.79 262.03 1268.26 259.406 1264.96 257.629C1261.74 255.767 1257.85 254.836 1253.28 254.836C1248.62 254.836 1244.52 255.936 1240.96 258.137C1237.41 260.337 1234.61 263.384 1232.58 267.277C1230.64 271.171 1229.66 275.699 1229.66 280.861V363H1192.59ZM1479 365.793C1465.12 365.793 1453.18 362.958 1443.2 357.287C1433.21 351.532 1425.51 343.365 1420.09 332.785C1414.76 322.206 1412.09 309.68 1412.09 295.207V295.08C1412.09 280.607 1414.76 268.081 1420.09 257.502C1425.51 246.838 1433.08 238.628 1442.82 232.873C1452.63 227.033 1464.19 224.113 1477.47 224.113C1490.76 224.113 1502.23 226.949 1511.88 232.619C1521.61 238.205 1529.1 246.118 1534.35 256.359C1539.68 266.6 1542.35 278.576 1542.35 292.287V303.713H1430.25V280.354H1524.83L1507.18 302.189V287.971C1507.18 280.015 1505.95 273.371 1503.5 268.039C1501.05 262.622 1497.62 258.56 1493.22 255.852C1488.9 253.143 1483.86 251.789 1478.11 251.789C1472.35 251.789 1467.23 253.186 1462.75 255.979C1458.35 258.771 1454.88 262.876 1452.34 268.293C1449.88 273.625 1448.66 280.184 1448.66 287.971V302.316C1448.66 309.849 1449.88 316.281 1452.34 321.613C1454.88 326.945 1458.47 331.05 1463.13 333.928C1467.78 336.721 1473.33 338.117 1479.76 338.117C1484.84 338.117 1489.24 337.313 1492.96 335.705C1496.69 334.097 1499.73 332.066 1502.1 329.611C1504.47 327.157 1506.08 324.66 1506.93 322.121L1507.18 321.359H1541.21L1540.82 322.756C1539.81 327.749 1537.82 332.785 1534.86 337.863C1531.9 342.941 1527.88 347.596 1522.8 351.828C1517.8 356.06 1511.67 359.445 1504.39 361.984C1497.19 364.523 1488.73 365.793 1479 365.793ZM1561.52 363V226.906H1598.59V249.25H1599.35C1602.9 241.464 1608.15 235.327 1615.09 230.842C1622.03 226.356 1630.62 224.113 1640.86 224.113C1655.84 224.113 1667.4 228.641 1675.52 237.697C1683.73 246.669 1687.84 259.152 1687.84 275.148V363H1650.77V282.766C1650.77 273.879 1648.65 267.023 1644.42 262.199C1640.27 257.29 1634.05 254.836 1625.76 254.836C1620.25 254.836 1615.47 256.105 1611.41 258.645C1607.35 261.099 1604.17 264.569 1601.89 269.055C1599.69 273.54 1598.59 278.788 1598.59 284.797V363H1561.52ZM1765.4 365.793C1750.34 365.793 1739.17 362.619 1731.89 356.271C1724.61 349.924 1720.97 339.471 1720.97 324.914V254.836H1702.05V226.906H1720.97V193.645H1758.42V226.906H1783.3V254.836H1758.42V320.852C1758.42 327.199 1759.82 331.643 1762.61 334.182C1765.49 336.636 1769.72 337.863 1775.31 337.863C1777 337.863 1778.48 337.821 1779.75 337.736C1781.02 337.567 1782.2 337.398 1783.3 337.229V364.396C1781.27 364.735 1778.73 365.031 1775.69 365.285C1772.73 365.624 1769.3 365.793 1765.4 365.793ZM1864.55 410.852H1794.83V385.559H1831.88V191.145H1794.83V165.715H1864.55V410.852Z" fill="#F9FAFB"/>
<path d="M1904.14 228.434V194.742H1919.96C1924.5 194.742 1927.95 195.738 1930.34 197.73C1932.72 199.723 1933.91 202.652 1933.91 206.52V206.578C1933.91 208.648 1933.38 210.562 1932.33 212.32C1931.31 214.039 1929.93 215.309 1928.17 216.129L1934.96 228.434H1923.54L1917.91 217.77C1917.88 217.77 1917.8 217.77 1917.68 217.77C1917.6 217.77 1917.52 217.77 1917.45 217.77H1914.28V228.434H1904.14ZM1914.34 210.211H1918.85C1920.3 210.211 1921.45 209.859 1922.31 209.156C1923.17 208.453 1923.6 207.555 1923.6 206.461C1923.6 205.367 1923.15 204.469 1922.25 203.766C1921.39 203.062 1920.24 202.711 1918.79 202.711H1914.34V210.211ZM1943.93 211.324C1943.93 206.637 1942.8 202.398 1940.53 198.609C1938.3 194.781 1935.28 191.754 1931.45 189.527C1927.66 187.301 1923.42 186.188 1918.73 186.188H1918.32C1913.6 186.188 1909.32 187.301 1905.49 189.527C1901.7 191.754 1898.68 194.781 1896.41 198.609C1894.18 202.398 1893.07 206.637 1893.07 211.324V211.734C1893.07 216.461 1894.18 220.738 1896.41 224.566C1898.68 228.355 1901.7 231.383 1905.49 233.648C1909.32 235.875 1913.6 236.988 1918.32 236.988H1918.73C1923.42 236.988 1927.66 235.875 1931.45 233.648C1935.28 231.383 1938.3 228.355 1940.53 224.566C1942.8 220.738 1943.93 216.461 1943.93 211.734V211.324ZM1952.07 211.324V211.734C1952.07 216.422 1951.21 220.797 1949.5 224.859C1947.82 228.883 1945.45 232.418 1942.41 235.465C1939.36 238.512 1935.8 240.895 1931.74 242.613C1927.72 244.293 1923.38 245.133 1918.73 245.133H1918.32C1913.64 245.133 1909.26 244.293 1905.2 242.613C1901.18 240.895 1897.64 238.512 1894.59 235.465C1891.55 232.418 1889.16 228.883 1887.45 224.859C1885.77 220.797 1884.93 216.422 1884.93 211.734V211.324C1884.93 206.676 1885.77 202.34 1887.45 198.316C1889.16 194.254 1891.55 190.719 1894.59 187.711C1897.64 184.664 1901.18 182.281 1905.2 180.562C1909.26 178.844 1913.64 177.984 1918.32 177.984H1918.73C1923.38 177.984 1927.72 178.844 1931.74 180.562C1935.8 182.281 1939.36 184.664 1942.41 187.711C1945.45 190.719 1947.82 194.254 1949.5 198.316C1951.21 202.34 1952.07 206.676 1952.07 211.324Z" fill="#F9FAFB"/>
</svg>
