<svg width="1769" height="429" viewBox="0 0 1769 429" fill="none" xmlns="http://www.w3.org/2000/svg">
<path d="M209.5 292H0C29.2 241.2 46 235.241 54.5 234.5H260C252.4 278.5 223.167 291.167 209.5 292Z" fill="#F5F5F5"/>
<path d="M147.5 72.5H357C327.8 123.3 311 129.259 302.5 130H97C104.6 86 133.833 73.3333 147.5 72.5Z" fill="#F5F5F5"/>
<path d="M246.5 207.016H73C102.2 156.216 105 158.516 113.5 158.516H285C277.4 202.516 260.167 206.183 246.5 207.016Z" fill="#F5F5F5"/>
<path d="M675.337 273.409C659.996 273.409 646.786 269.787 635.706 262.543C624.627 255.298 616.104 245.32 610.138 232.607C604.172 219.893 601.189 205.369 601.189 189.034C601.189 172.415 604.243 157.749 610.351 145.036C616.53 132.251 625.124 122.273 636.132 115.099C647.212 107.855 660.138 104.233 674.911 104.233C686.417 104.233 696.786 106.364 706.019 110.625C715.252 114.886 722.816 120.852 728.711 128.523C734.605 136.193 738.263 145.142 739.684 155.369H714.542C712.624 147.912 708.363 141.307 701.757 135.554C695.223 129.73 686.417 126.818 675.337 126.818C665.536 126.818 656.942 129.375 649.556 134.489C642.24 139.531 636.523 146.669 632.404 155.902C628.355 165.064 626.331 175.824 626.331 188.182C626.331 200.824 628.32 211.832 632.297 221.207C636.346 230.582 642.027 237.862 649.343 243.047C656.729 248.232 665.394 250.824 675.337 250.824C681.871 250.824 687.802 249.688 693.128 247.415C698.455 245.142 702.965 241.875 706.658 237.614C710.351 233.352 712.979 228.239 714.542 222.273H739.684C738.263 231.932 734.748 240.632 729.137 248.374C723.597 256.044 716.246 262.152 707.084 266.697C697.993 271.172 687.411 273.409 675.337 273.409ZM783.58 171.562V270H758.438V51.8182H783.58V131.932H785.711C789.546 123.48 795.299 116.768 802.969 111.797C810.711 106.754 821.009 104.233 833.864 104.233C845.015 104.233 854.78 106.47 863.161 110.945C871.542 115.348 878.04 122.131 882.657 131.293C887.344 140.384 889.688 151.96 889.688 166.023V270H864.546V167.727C864.546 154.73 861.172 144.68 854.425 137.578C847.749 130.405 838.48 126.818 826.62 126.818C818.381 126.818 810.995 128.558 804.461 132.038C797.998 135.518 792.884 140.597 789.12 147.273C785.427 153.949 783.58 162.045 783.58 171.562ZM986.292 273.409C970.525 273.409 956.924 269.929 945.489 262.969C934.126 255.938 925.354 246.136 919.175 233.565C913.067 220.923 910.014 206.222 910.014 189.46C910.014 172.699 913.067 157.926 919.175 145.142C925.354 132.287 933.948 122.273 944.957 115.099C956.036 107.855 968.962 104.233 983.735 104.233C992.258 104.233 1000.67 105.653 1008.98 108.494C1017.29 111.335 1024.86 115.952 1031.68 122.344C1038.49 128.665 1043.93 137.045 1047.98 147.486C1052.02 157.926 1054.05 170.781 1054.05 186.051V196.705H927.911V174.972H1028.48C1028.48 165.739 1026.63 157.5 1022.94 150.256C1019.32 143.011 1014.13 137.294 1007.39 133.104C1000.71 128.913 992.826 126.818 983.735 126.818C973.721 126.818 965.056 129.304 957.741 134.276C950.496 139.176 944.921 145.568 941.015 153.452C937.109 161.335 935.156 169.787 935.156 178.807V193.295C935.156 205.653 937.286 216.129 941.548 224.723C945.88 233.246 951.881 239.744 959.552 244.219C967.222 248.622 976.136 250.824 986.292 250.824C992.897 250.824 998.863 249.901 1004.19 248.054C1009.59 246.136 1014.24 243.295 1018.15 239.531C1022.05 235.696 1025.07 230.937 1027.2 225.256L1051.49 232.074C1048.93 240.312 1044.64 247.557 1038.6 253.807C1032.56 259.986 1025.11 264.815 1016.23 268.295C1007.35 271.705 997.371 273.409 986.292 273.409ZM1136.08 273.409C1122.45 273.409 1110.41 269.964 1099.97 263.075C1089.53 256.115 1081.36 246.314 1075.47 233.672C1069.57 220.959 1066.62 205.938 1066.62 188.608C1066.62 171.42 1069.57 156.506 1075.47 143.864C1081.36 131.222 1089.56 121.456 1100.07 114.567C1110.59 107.678 1122.73 104.233 1136.51 104.233C1147.16 104.233 1155.58 106.009 1161.76 109.56C1168.01 113.04 1172.77 117.017 1176.03 121.491C1179.37 125.895 1181.96 129.517 1183.81 132.358H1185.94V51.8182H1211.08V270H1186.79V244.858H1183.81C1181.96 247.841 1179.34 251.605 1175.93 256.151C1172.52 260.625 1167.65 264.638 1161.33 268.189C1155.01 271.669 1146.59 273.409 1136.08 273.409ZM1139.49 250.824C1149.58 250.824 1158.1 248.196 1165.06 242.94C1172.02 237.614 1177.31 230.263 1180.93 220.888C1184.56 211.442 1186.37 200.54 1186.37 188.182C1186.37 175.966 1184.59 165.277 1181.04 156.115C1177.49 146.882 1172.23 139.709 1165.27 134.595C1158.31 129.411 1149.72 126.818 1139.49 126.818C1128.84 126.818 1119.96 129.553 1112.86 135.021C1105.83 140.419 1100.54 147.77 1096.99 157.074C1093.5 166.307 1091.76 176.676 1091.76 188.182C1091.76 199.83 1093.54 210.412 1097.09 219.929C1100.71 229.375 1106.04 236.903 1113.07 242.514C1120.17 248.054 1128.98 250.824 1139.49 250.824ZM1345.75 203.097V106.364H1370.89V270H1345.75V242.301H1344.04C1340.21 250.611 1334.24 257.678 1326.14 263.501C1318.05 269.254 1307.82 272.131 1295.46 272.131C1285.24 272.131 1276.14 269.893 1268.19 265.419C1260.24 260.874 1253.99 254.055 1249.44 244.964C1244.89 235.803 1242.62 224.261 1242.62 210.341V106.364H1267.76V208.636C1267.76 220.568 1271.1 230.085 1277.78 237.188C1284.52 244.29 1293.12 247.841 1303.56 247.841C1309.81 247.841 1316.17 246.243 1322.63 243.047C1329.16 239.851 1334.63 234.95 1339.03 228.345C1343.51 221.74 1345.75 213.324 1345.75 203.097ZM1424.08 51.8182V270H1398.94V51.8182H1424.08ZM1452.13 270V106.364H1477.27V270H1452.13ZM1464.91 79.0909C1460.01 79.0909 1455.79 77.4219 1452.24 74.0838C1448.76 70.7457 1447.02 66.733 1447.02 62.0455C1447.02 57.358 1448.76 53.3452 1452.24 50.0071C1455.79 46.669 1460.01 45 1464.91 45C1469.81 45 1474 46.669 1477.48 50.0071C1481.04 53.3452 1482.81 57.358 1482.81 62.0455C1482.81 66.733 1481.04 70.7457 1477.48 74.0838C1474 77.4219 1469.81 79.0909 1464.91 79.0909ZM1571.8 273.409C1557.03 273.409 1544.06 269.893 1532.91 262.862C1521.83 255.831 1513.17 245.994 1506.92 233.352C1500.74 220.71 1497.65 205.937 1497.65 189.034C1497.65 171.989 1500.74 157.109 1506.92 144.396C1513.17 131.683 1521.83 121.811 1532.91 114.78C1544.06 107.749 1557.03 104.233 1571.8 104.233C1586.57 104.233 1599.5 107.749 1610.58 114.78C1621.73 121.811 1630.39 131.683 1636.57 144.396C1642.82 157.109 1645.95 171.989 1645.95 189.034C1645.95 205.937 1642.82 220.71 1636.57 233.352C1630.39 245.994 1621.73 255.831 1610.58 262.862C1599.5 269.893 1586.57 273.409 1571.8 273.409ZM1571.8 250.824C1583.02 250.824 1592.25 247.947 1599.5 242.195C1606.74 236.442 1612.1 228.878 1615.58 219.503C1619.06 210.128 1620.8 199.972 1620.8 189.034C1620.8 178.097 1619.06 167.905 1615.58 158.459C1612.1 149.013 1606.74 141.378 1599.5 135.554C1592.25 129.73 1583.02 126.818 1571.8 126.818C1560.58 126.818 1551.34 129.73 1544.1 135.554C1536.85 141.378 1531.49 149.013 1528.01 158.459C1524.53 167.905 1522.79 178.097 1522.79 189.034C1522.79 199.972 1524.53 210.128 1528.01 219.503C1531.49 228.878 1536.85 236.442 1544.1 242.195C1551.34 247.947 1560.58 250.824 1571.8 250.824Z" fill="#F5F5F5"/>
<path d="M578.045 111V137.5L482.077 138.5C475.222 139.667 465.396 143.913 464.45 155.5C463.716 164.5 473.248 174 483.531 174H539.364C558.934 174 589.389 187 587.823 225C586.256 263 551.59 268.5 539.364 268.5H449.256V243.5H539.364C546.219 243.5 560.223 239.5 561.398 223.5C562.573 207.5 547.198 201.167 539.364 200H480.119C465.266 198.333 436.232 187.1 437.016 155.5C437.799 123.9 464.925 111.5 482.077 111.5L578.045 111Z" fill="#F5F5F5"/>
<path d="M1138.84 370.96C1135.91 370.96 1133.29 370.32 1131 369.04C1128.71 367.707 1126.95 365.893 1125.72 363.6L1125.48 370H1119.4V313.2H1126.12V333.52C1127.19 331.76 1128.84 330.187 1131.08 328.8C1133.32 327.36 1135.91 326.64 1138.84 326.64C1142.57 326.64 1145.8 327.547 1148.52 329.36C1151.24 331.173 1153.35 333.733 1154.84 337.04C1156.33 340.347 1157.08 344.267 1157.08 348.8C1157.08 353.333 1156.33 357.253 1154.84 360.56C1153.35 363.867 1151.24 366.427 1148.52 368.24C1145.8 370.053 1142.57 370.96 1138.84 370.96ZM1138.44 364.56C1142.01 364.56 1144.84 363.147 1146.92 360.32C1149 357.493 1150.04 353.653 1150.04 348.8C1150.04 343.893 1149 340.053 1146.92 337.28C1144.84 334.453 1142.07 333.04 1138.6 333.04C1135.99 333.04 1133.75 333.68 1131.88 334.96C1130.01 336.187 1128.57 337.973 1127.56 340.32C1126.6 342.667 1126.12 345.493 1126.12 348.8C1126.12 352 1126.6 354.8 1127.56 357.2C1128.57 359.547 1129.99 361.36 1131.8 362.64C1133.67 363.92 1135.88 364.56 1138.44 364.56ZM1161.99 382V376.08H1166.87C1168.36 376.08 1169.45 375.84 1170.15 375.36C1170.89 374.933 1171.45 374.213 1171.83 373.2L1173.35 369.2H1171.03L1155.51 327.6H1162.87L1175.51 362.96L1187.59 327.6H1194.95L1177.75 375.36C1176.95 377.653 1175.75 379.333 1174.15 380.4C1172.55 381.467 1170.33 382 1167.51 382H1161.99ZM1237.36 378.8H1213.04V310H1237.36V319.44H1224.56V369.36H1237.36V378.8ZM1254.05 370.96C1250.42 370.96 1247.27 370.053 1244.61 368.24C1241.99 366.373 1239.97 363.787 1238.53 360.48C1237.14 357.12 1236.45 353.147 1236.45 348.56C1236.45 343.973 1237.17 340.027 1238.61 336.72C1240.05 333.36 1242.07 330.773 1244.69 328.96C1247.35 327.093 1250.47 326.16 1254.05 326.16C1257.09 326.16 1259.7 326.8 1261.89 328.08C1264.13 329.307 1265.81 331.013 1266.93 333.2V313.2H1278.93V370H1267.49L1267.25 363.68C1266.07 365.973 1264.31 367.76 1261.97 369.04C1259.67 370.32 1257.03 370.96 1254.05 370.96ZM1257.97 361.76C1259.89 361.76 1261.51 361.253 1262.85 360.24C1264.18 359.227 1265.19 357.76 1265.89 355.84C1266.58 353.867 1266.93 351.44 1266.93 348.56C1266.93 345.627 1266.58 343.2 1265.89 341.28C1265.19 339.307 1264.18 337.84 1262.85 336.88C1261.51 335.867 1259.89 335.36 1257.97 335.36C1255.14 335.36 1252.9 336.56 1251.25 338.96C1249.59 341.307 1248.77 344.507 1248.77 348.56C1248.77 352.56 1249.59 355.76 1251.25 358.16C1252.95 360.56 1255.19 361.76 1257.97 361.76ZM1296.61 370.96C1292.18 370.96 1288.56 369.947 1285.73 367.92C1282.96 365.84 1281.57 362.96 1281.57 359.28C1281.57 355.493 1282.74 352.587 1285.09 350.56C1287.49 348.48 1291.01 346.96 1295.65 346L1309.49 343.28C1309.49 340.507 1308.85 338.427 1307.57 337.04C1306.34 335.6 1304.56 334.88 1302.21 334.88C1299.92 334.88 1298.13 335.413 1296.85 336.48C1295.57 337.493 1294.74 339.013 1294.37 341.04L1282.29 340.48C1283.09 335.787 1285.2 332.24 1288.61 329.84C1292.08 327.387 1296.61 326.16 1302.21 326.16C1308.61 326.16 1313.41 327.68 1316.61 330.72C1319.86 333.76 1321.49 338.213 1321.49 344.08V358.72C1321.49 359.947 1321.68 360.773 1322.05 361.2C1322.48 361.573 1323.09 361.76 1323.89 361.76H1325.09V370C1324.72 370.107 1324.1 370.213 1323.25 370.32C1322.45 370.427 1321.65 370.48 1320.85 370.48C1319.14 370.48 1317.54 370.187 1316.05 369.6C1314.61 369.013 1313.44 368.027 1312.53 366.64C1311.62 365.2 1311.17 363.173 1311.17 360.56L1312.21 361.36C1311.68 363.28 1310.72 364.96 1309.33 366.4C1308 367.84 1306.24 368.96 1304.05 369.76C1301.92 370.56 1299.44 370.96 1296.61 370.96ZM1299.49 362.72C1301.46 362.72 1303.2 362.347 1304.69 361.6C1306.18 360.8 1307.36 359.653 1308.21 358.16C1309.06 356.667 1309.49 354.907 1309.49 352.88V350.8L1299.73 352.88C1297.81 353.253 1296.34 353.893 1295.33 354.8C1294.37 355.653 1293.89 356.773 1293.89 358.16C1293.89 359.6 1294.37 360.72 1295.33 361.52C1296.29 362.32 1297.68 362.72 1299.49 362.72ZM1335.93 370L1320.25 327.12H1332.81L1342.97 357.92L1353.05 327.12H1365.61L1349.85 370H1335.93ZM1384.82 370.96C1380.45 370.96 1376.63 370.053 1373.38 368.24C1370.18 366.373 1367.67 363.76 1365.86 360.4C1364.1 357.04 1363.22 353.093 1363.22 348.56C1363.22 344.027 1364.1 340.107 1365.86 336.8C1367.67 333.44 1370.18 330.827 1373.38 328.96C1376.58 327.093 1380.37 326.16 1384.74 326.16C1389.01 326.16 1392.71 327.093 1395.86 328.96C1399.01 330.827 1401.43 333.493 1403.14 336.96C1404.9 340.427 1405.78 344.56 1405.78 349.36V351.76H1375.62C1375.78 355.173 1376.69 357.707 1378.34 359.36C1380.05 361.013 1382.29 361.84 1385.06 361.84C1387.09 361.84 1388.77 361.413 1390.1 360.56C1391.49 359.707 1392.47 358.4 1393.06 356.64L1405.14 357.36C1404.02 361.627 1401.65 364.96 1398.02 367.36C1394.39 369.76 1389.99 370.96 1384.82 370.96ZM1375.62 344.4H1393.46C1393.3 341.253 1392.42 338.907 1390.82 337.36C1389.27 335.813 1387.25 335.04 1384.74 335.04C1382.23 335.04 1380.15 335.867 1378.5 337.52C1376.9 339.12 1375.94 341.413 1375.62 344.4ZM1419.99 370C1416.47 370 1413.72 369.12 1411.75 367.36C1409.77 365.6 1408.79 362.747 1408.79 358.8V313.2H1420.79V357.52C1420.79 358.8 1421.08 359.707 1421.67 360.24C1422.25 360.773 1423.11 361.04 1424.23 361.04H1427.11V370H1419.99ZM1447.72 370.96C1443.35 370.96 1439.54 370.053 1436.28 368.24C1433.03 366.373 1430.5 363.76 1428.68 360.4C1426.87 357.04 1425.96 353.093 1425.96 348.56C1425.96 344.027 1426.87 340.107 1428.68 336.8C1430.5 333.44 1433.03 330.827 1436.28 328.96C1439.54 327.093 1443.35 326.16 1447.72 326.16C1452.1 326.16 1455.91 327.093 1459.16 328.96C1462.42 330.827 1464.95 333.44 1466.76 336.8C1468.58 340.107 1469.48 344.027 1469.48 348.56C1469.48 353.093 1468.58 357.04 1466.76 360.4C1464.95 363.76 1462.42 366.373 1459.16 368.24C1455.91 370.053 1452.1 370.96 1447.72 370.96ZM1447.72 361.76C1450.71 361.76 1453.03 360.613 1454.68 358.32C1456.34 355.973 1457.16 352.72 1457.16 348.56C1457.16 344.4 1456.34 341.173 1454.68 338.88C1453.03 336.533 1450.71 335.36 1447.72 335.36C1444.74 335.36 1442.42 336.533 1440.76 338.88C1439.11 341.173 1438.28 344.4 1438.28 348.56C1438.28 352.72 1439.11 355.973 1440.76 358.32C1442.42 360.613 1444.74 361.76 1447.72 361.76ZM1472.15 382V327.12H1483.68L1483.92 336.16L1482.96 335.76C1484.02 332.667 1485.76 330.293 1488.16 328.64C1490.56 326.987 1493.36 326.16 1496.56 326.16C1500.56 326.16 1503.89 327.147 1506.56 329.12C1509.22 331.093 1511.22 333.787 1512.56 337.2C1513.94 340.56 1514.64 344.347 1514.64 348.56C1514.64 352.72 1513.94 356.507 1512.56 359.92C1511.22 363.333 1509.2 366.027 1506.48 368C1503.81 369.973 1500.48 370.96 1496.48 370.96C1494.4 370.96 1492.45 370.587 1490.64 369.84C1488.82 369.04 1487.25 367.947 1485.92 366.56C1484.64 365.173 1483.7 363.52 1483.12 361.6L1484.16 360.96V382H1472.15ZM1493.2 361.76C1496.02 361.76 1498.24 360.587 1499.84 358.24C1501.49 355.893 1502.32 352.667 1502.32 348.56C1502.32 344.453 1501.49 341.227 1499.84 338.88C1498.24 336.533 1496.02 335.36 1493.2 335.36C1491.33 335.36 1489.7 335.867 1488.32 336.88C1486.98 337.84 1485.94 339.307 1485.2 341.28C1484.5 343.253 1484.16 345.68 1484.16 348.56C1484.16 351.44 1484.5 353.867 1485.2 355.84C1485.94 357.813 1486.98 359.307 1488.32 360.32C1489.7 361.28 1491.33 361.76 1493.2 361.76ZM1517.28 370V327.12H1528.08L1528.48 337.44L1527.36 336.96C1527.94 334.667 1528.82 332.72 1530 331.12C1531.22 329.52 1532.69 328.293 1534.4 327.44C1536.1 326.587 1537.97 326.16 1540 326.16C1543.57 326.16 1546.45 327.2 1548.64 329.28C1550.88 331.36 1552.32 334.16 1552.96 337.68L1551.44 337.76C1551.92 335.253 1552.74 333.147 1553.92 331.44C1555.14 329.68 1556.64 328.373 1558.4 327.52C1560.16 326.613 1562.13 326.16 1564.32 326.16C1567.3 326.16 1569.86 326.773 1572 328C1574.13 329.227 1575.78 331.067 1576.96 333.52C1578.13 335.92 1578.72 338.88 1578.72 342.4V370H1566.72V345.76C1566.72 342.4 1566.21 339.893 1565.2 338.24C1564.18 336.533 1562.53 335.68 1560.24 335.68C1558.8 335.68 1557.57 336.08 1556.56 336.88C1555.54 337.68 1554.74 338.853 1554.16 340.4C1553.62 341.893 1553.36 343.733 1553.36 345.92V370H1542.56V345.92C1542.56 342.613 1542.08 340.08 1541.12 338.32C1540.16 336.56 1538.5 335.68 1536.16 335.68C1534.72 335.68 1533.46 336.08 1532.4 336.88C1531.38 337.68 1530.61 338.853 1530.08 340.4C1529.54 341.947 1529.28 343.787 1529.28 345.92V370H1517.28ZM1602.77 370.96C1598.4 370.96 1594.59 370.053 1591.33 368.24C1588.13 366.373 1585.63 363.76 1583.81 360.4C1582.05 357.04 1581.17 353.093 1581.17 348.56C1581.17 344.027 1582.05 340.107 1583.81 336.8C1585.63 333.44 1588.13 330.827 1591.33 328.96C1594.53 327.093 1598.32 326.16 1602.69 326.16C1606.96 326.16 1610.67 327.093 1613.81 328.96C1616.96 330.827 1619.39 333.493 1621.09 336.96C1622.85 340.427 1623.73 344.56 1623.73 349.36V351.76H1593.57C1593.73 355.173 1594.64 357.707 1596.29 359.36C1598 361.013 1600.24 361.84 1603.01 361.84C1605.04 361.84 1606.72 361.413 1608.05 360.56C1609.44 359.707 1610.43 358.4 1611.01 356.64L1623.09 357.36C1621.97 361.627 1619.6 364.96 1615.97 367.36C1612.35 369.76 1607.95 370.96 1602.77 370.96ZM1593.57 344.4H1611.41C1611.25 341.253 1610.37 338.907 1608.77 337.36C1607.23 335.813 1605.2 335.04 1602.69 335.04C1600.19 335.04 1598.11 335.867 1596.45 337.52C1594.85 339.12 1593.89 341.413 1593.57 344.4ZM1626.35 370V327.12H1637.15L1637.63 339.68L1636.11 339.28C1636.54 336.08 1637.39 333.52 1638.67 331.6C1640 329.68 1641.66 328.293 1643.63 327.44C1645.6 326.587 1647.76 326.16 1650.11 326.16C1653.2 326.16 1655.82 326.827 1657.95 328.16C1660.14 329.493 1661.79 331.387 1662.91 333.84C1664.08 336.24 1664.67 339.093 1664.67 342.4V370H1652.67V346.4C1652.67 344.107 1652.48 342.16 1652.11 340.56C1651.74 338.96 1651.07 337.76 1650.11 336.96C1649.15 336.107 1647.82 335.68 1646.11 335.68C1643.6 335.68 1641.68 336.613 1640.35 338.48C1639.02 340.293 1638.35 342.933 1638.35 346.4V370H1626.35ZM1685.4 370C1680.98 370 1677.72 368.987 1675.64 366.96C1673.56 364.88 1672.52 361.6 1672.52 357.12V317.04H1684.52V355.68C1684.52 357.76 1684.95 359.173 1685.8 359.92C1686.71 360.667 1688.04 361.04 1689.8 361.04H1695.8V370H1685.4ZM1665.64 336.08V327.12H1695.8V336.08H1665.64ZM1694.15 378.8V369.36H1706.95V319.44H1694.15V310H1718.47V378.8H1694.15ZM1745.56 357.2C1742.41 357.2 1739.45 356.613 1736.68 355.44C1733.96 354.213 1731.56 352.587 1729.48 350.56C1727.45 348.48 1725.85 346.08 1724.68 343.36C1723.51 340.587 1722.92 337.627 1722.92 334.48C1722.92 331.333 1723.51 328.4 1724.68 325.68C1725.85 322.96 1727.45 320.587 1729.48 318.56C1731.56 316.48 1733.96 314.853 1736.68 313.68C1739.45 312.507 1742.41 311.92 1745.56 311.92C1748.65 311.92 1751.56 312.507 1754.28 313.68C1757.05 314.853 1759.45 316.48 1761.48 318.56C1763.56 320.587 1765.19 322.96 1766.36 325.68C1767.53 328.4 1768.12 331.333 1768.12 334.48C1768.12 337.627 1767.53 340.587 1766.36 343.36C1765.19 346.08 1763.56 348.48 1761.48 350.56C1759.45 352.587 1757.05 354.213 1754.28 355.44C1751.56 356.613 1748.65 357.2 1745.56 357.2ZM1745.56 352C1748.81 352 1751.72 351.2 1754.28 349.6C1756.89 348 1758.95 345.867 1760.44 343.2C1761.99 340.533 1762.76 337.627 1762.76 334.48C1762.76 331.333 1761.99 328.453 1760.44 325.84C1758.95 323.173 1756.89 321.067 1754.28 319.52C1751.72 317.92 1748.81 317.12 1745.56 317.12C1742.31 317.12 1739.37 317.92 1736.76 319.52C1734.2 321.067 1732.15 323.173 1730.6 325.84C1729.05 328.453 1728.28 331.333 1728.28 334.48C1728.28 337.627 1729.05 340.533 1730.6 343.2C1732.15 345.867 1734.2 348 1736.76 349.6C1739.37 351.2 1742.31 352 1745.56 352ZM1736.12 346.4V322.48H1745.72C1748.76 322.48 1751.19 323.173 1753 324.56C1754.81 325.947 1755.72 327.787 1755.72 330.08C1755.72 331.68 1755.32 333.093 1754.52 334.32C1753.72 335.493 1752.57 336.347 1751.08 336.88L1756.28 346.4H1749.4L1745 337.84H1742.44V346.4H1736.12ZM1742.36 333.04H1745.16C1746.39 333.04 1747.37 332.827 1748.12 332.4C1748.87 331.92 1749.24 331.2 1749.24 330.24C1749.24 329.28 1748.87 328.587 1748.12 328.16C1747.37 327.733 1746.39 327.52 1745.16 327.52H1742.36V333.04Z" fill="#A3A3A3"/>
</svg>
