<svg width="2034" height="526" viewBox="0 0 2034 526" fill="none" xmlns="http://www.w3.org/2000/svg">
<rect width="2034" height="526" rx="100" fill="#0A0A0B"/>
<path d="M348.5 362H139C168.2 311.2 185 305.241 193.5 304.5H399C391.4 348.5 362.167 361.167 348.5 362Z" fill="#F5F5F5"/>
<path d="M286.5 142.5H496C466.8 193.3 450 199.259 441.5 200H236C243.6 156 272.833 143.333 286.5 142.5Z" fill="#F5F5F5"/>
<path d="M385.5 277.016H212C241.2 226.216 244 228.516 252.5 228.516H424C416.4 272.516 399.167 276.183 385.5 277.016Z" fill="#F5F5F5"/>
<path d="M814.337 343.409C798.996 343.409 785.786 339.787 774.706 332.543C763.627 325.298 755.104 315.32 749.138 302.607C743.172 289.893 740.189 275.369 740.189 259.034C740.189 242.415 743.243 227.749 749.351 215.036C755.53 202.251 764.124 192.273 775.132 185.099C786.212 177.855 799.138 174.233 813.911 174.233C825.417 174.233 835.786 176.364 845.019 180.625C854.252 184.886 861.816 190.852 867.711 198.523C873.605 206.193 877.263 215.142 878.684 225.369H853.542C851.624 217.912 847.363 211.307 840.757 205.554C834.223 199.73 825.417 196.818 814.337 196.818C804.536 196.818 795.942 199.375 788.556 204.489C781.24 209.531 775.523 216.669 771.404 225.902C767.355 235.064 765.331 245.824 765.331 258.182C765.331 270.824 767.32 281.832 771.297 291.207C775.346 300.582 781.027 307.862 788.343 313.047C795.729 318.232 804.394 320.824 814.337 320.824C820.871 320.824 826.802 319.688 832.128 317.415C837.455 315.142 841.965 311.875 845.658 307.614C849.351 303.352 851.979 298.239 853.542 292.273H878.684C877.263 301.932 873.748 310.632 868.137 318.374C862.597 326.044 855.246 332.152 846.084 336.697C836.993 341.172 826.411 343.409 814.337 343.409ZM922.58 241.562V340H897.438V121.818H922.58V201.932H924.711C928.546 193.48 934.299 186.768 941.969 181.797C949.711 176.754 960.009 174.233 972.864 174.233C984.015 174.233 993.78 176.47 1002.16 180.945C1010.54 185.348 1017.04 192.131 1021.66 201.293C1026.34 210.384 1028.69 221.96 1028.69 236.023V340H1003.55V237.727C1003.55 224.73 1000.17 214.68 993.425 207.578C986.749 200.405 977.48 196.818 965.62 196.818C957.381 196.818 949.995 198.558 943.461 202.038C936.998 205.518 931.884 210.597 928.12 217.273C924.427 223.949 922.58 232.045 922.58 241.562ZM1125.29 343.409C1109.52 343.409 1095.92 339.929 1084.49 332.969C1073.13 325.938 1064.35 316.136 1058.18 303.565C1052.07 290.923 1049.01 276.222 1049.01 259.46C1049.01 242.699 1052.07 227.926 1058.18 215.142C1064.35 202.287 1072.95 192.273 1083.96 185.099C1095.04 177.855 1107.96 174.233 1122.74 174.233C1131.26 174.233 1139.67 175.653 1147.98 178.494C1156.29 181.335 1163.86 185.952 1170.68 192.344C1177.49 198.665 1182.93 207.045 1186.98 217.486C1191.02 227.926 1193.05 240.781 1193.05 256.051V266.705H1066.91V244.972H1167.48C1167.48 235.739 1165.63 227.5 1161.94 220.256C1158.32 213.011 1153.13 207.294 1146.39 203.104C1139.71 198.913 1131.83 196.818 1122.74 196.818C1112.72 196.818 1104.06 199.304 1096.74 204.276C1089.5 209.176 1083.92 215.568 1080.01 223.452C1076.11 231.335 1074.16 239.787 1074.16 248.807V263.295C1074.16 275.653 1076.29 286.129 1080.55 294.723C1084.88 303.246 1090.88 309.744 1098.55 314.219C1106.22 318.622 1115.14 320.824 1125.29 320.824C1131.9 320.824 1137.86 319.901 1143.19 318.054C1148.59 316.136 1153.24 313.295 1157.15 309.531C1161.05 305.696 1164.07 300.937 1166.2 295.256L1190.49 302.074C1187.93 310.312 1183.64 317.557 1177.6 323.807C1171.56 329.986 1164.11 334.815 1155.23 338.295C1146.35 341.705 1136.37 343.409 1125.29 343.409ZM1275.08 343.409C1261.45 343.409 1249.41 339.964 1238.97 333.075C1228.53 326.115 1220.36 316.314 1214.47 303.672C1208.57 290.959 1205.62 275.938 1205.62 258.608C1205.62 241.42 1208.57 226.506 1214.47 213.864C1220.36 201.222 1228.56 191.456 1239.07 184.567C1249.59 177.678 1261.73 174.233 1275.51 174.233C1286.16 174.233 1294.58 176.009 1300.76 179.56C1307.01 183.04 1311.77 187.017 1315.03 191.491C1318.37 195.895 1320.96 199.517 1322.81 202.358H1324.94V121.818H1350.08V340H1325.79V314.858H1322.81C1320.96 317.841 1318.34 321.605 1314.93 326.151C1311.52 330.625 1306.65 334.638 1300.33 338.189C1294.01 341.669 1285.59 343.409 1275.08 343.409ZM1278.49 320.824C1288.58 320.824 1297.1 318.196 1304.06 312.94C1311.02 307.614 1316.31 300.263 1319.93 290.888C1323.56 281.442 1325.37 270.54 1325.37 258.182C1325.37 245.966 1323.59 235.277 1320.04 226.115C1316.49 216.882 1311.23 209.709 1304.27 204.595C1297.31 199.411 1288.72 196.818 1278.49 196.818C1267.84 196.818 1258.96 199.553 1251.86 205.021C1244.83 210.419 1239.54 217.77 1235.99 227.074C1232.5 236.307 1230.76 246.676 1230.76 258.182C1230.76 269.83 1232.54 280.412 1236.09 289.929C1239.71 299.375 1245.04 306.903 1252.07 312.514C1259.17 318.054 1267.98 320.824 1278.49 320.824ZM1484.75 273.097V176.364H1509.89V340H1484.75V312.301H1483.04C1479.21 320.611 1473.24 327.678 1465.14 333.501C1457.05 339.254 1446.82 342.131 1434.46 342.131C1424.24 342.131 1415.14 339.893 1407.19 335.419C1399.24 330.874 1392.99 324.055 1388.44 314.964C1383.89 305.803 1381.62 294.261 1381.62 280.341V176.364H1406.76V278.636C1406.76 290.568 1410.1 300.085 1416.78 307.188C1423.52 314.29 1432.12 317.841 1442.56 317.841C1448.81 317.841 1455.17 316.243 1461.63 313.047C1468.16 309.851 1473.63 304.95 1478.03 298.345C1482.51 291.74 1484.75 283.324 1484.75 273.097ZM1563.08 121.818V340H1537.94V121.818H1563.08ZM1591.13 340V176.364H1616.27V340H1591.13ZM1603.91 149.091C1599.01 149.091 1594.79 147.422 1591.24 144.084C1587.76 140.746 1586.02 136.733 1586.02 132.045C1586.02 127.358 1587.76 123.345 1591.24 120.007C1594.79 116.669 1599.01 115 1603.91 115C1608.81 115 1613 116.669 1616.48 120.007C1620.04 123.345 1621.81 127.358 1621.81 132.045C1621.81 136.733 1620.04 140.746 1616.48 144.084C1613 147.422 1608.81 149.091 1603.91 149.091ZM1710.8 343.409C1696.03 343.409 1683.06 339.893 1671.91 332.862C1660.83 325.831 1652.17 315.994 1645.92 303.352C1639.74 290.71 1636.65 275.937 1636.65 259.034C1636.65 241.989 1639.74 227.109 1645.92 214.396C1652.17 201.683 1660.83 191.811 1671.91 184.78C1683.06 177.749 1696.03 174.233 1710.8 174.233C1725.57 174.233 1738.5 177.749 1749.58 184.78C1760.73 191.811 1769.39 201.683 1775.57 214.396C1781.82 227.109 1784.95 241.989 1784.95 259.034C1784.95 275.937 1781.82 290.71 1775.57 303.352C1769.39 315.994 1760.73 325.831 1749.58 332.862C1738.5 339.893 1725.57 343.409 1710.8 343.409ZM1710.8 320.824C1722.02 320.824 1731.25 317.947 1738.5 312.195C1745.74 306.442 1751.1 298.878 1754.58 289.503C1758.06 280.128 1759.8 269.972 1759.8 259.034C1759.8 248.097 1758.06 237.905 1754.58 228.459C1751.1 219.013 1745.74 211.378 1738.5 205.554C1731.25 199.73 1722.02 196.818 1710.8 196.818C1699.58 196.818 1690.34 199.73 1683.1 205.554C1675.85 211.378 1670.49 219.013 1667.01 228.459C1663.53 237.905 1661.79 248.097 1661.79 259.034C1661.79 269.972 1663.53 280.128 1667.01 289.503C1670.49 298.878 1675.85 306.442 1683.1 312.195C1690.34 317.947 1699.58 320.824 1710.8 320.824Z" fill="#F5F5F5"/>
<path d="M717.045 181V207.5L621.077 208.5C614.222 209.667 604.396 213.913 603.45 225.5C602.716 234.5 612.248 244 622.531 244H678.364C697.934 244 728.389 257 726.823 295C725.256 333 690.59 338.5 678.364 338.5H588.256V313.5H678.364C685.219 313.5 699.223 309.5 700.398 293.5C701.573 277.5 686.198 271.167 678.364 270H619.119C604.266 268.333 575.232 257.1 576.016 225.5C576.799 193.9 603.925 181.5 621.077 181.5L717.045 181Z" fill="#F5F5F5"/>
<path d="M1277.84 440.96C1274.91 440.96 1272.29 440.32 1270 439.04C1267.71 437.707 1265.95 435.893 1264.72 433.6L1264.48 440H1258.4V383.2H1265.12V403.52C1266.19 401.76 1267.84 400.187 1270.08 398.8C1272.32 397.36 1274.91 396.64 1277.84 396.64C1281.57 396.64 1284.8 397.547 1287.52 399.36C1290.24 401.173 1292.35 403.733 1293.84 407.04C1295.33 410.347 1296.08 414.267 1296.08 418.8C1296.08 423.333 1295.33 427.253 1293.84 430.56C1292.35 433.867 1290.24 436.427 1287.52 438.24C1284.8 440.053 1281.57 440.96 1277.84 440.96ZM1277.44 434.56C1281.01 434.56 1283.84 433.147 1285.92 430.32C1288 427.493 1289.04 423.653 1289.04 418.8C1289.04 413.893 1288 410.053 1285.92 407.28C1283.84 404.453 1281.07 403.04 1277.6 403.04C1274.99 403.04 1272.75 403.68 1270.88 404.96C1269.01 406.187 1267.57 407.973 1266.56 410.32C1265.6 412.667 1265.12 415.493 1265.12 418.8C1265.12 422 1265.6 424.8 1266.56 427.2C1267.57 429.547 1268.99 431.36 1270.8 432.64C1272.67 433.92 1274.88 434.56 1277.44 434.56ZM1300.99 452V446.08H1305.87C1307.36 446.08 1308.45 445.84 1309.15 445.36C1309.89 444.933 1310.45 444.213 1310.83 443.2L1312.35 439.2H1310.03L1294.51 397.6H1301.87L1314.51 432.96L1326.59 397.6H1333.95L1316.75 445.36C1315.95 447.653 1314.75 449.333 1313.15 450.4C1311.55 451.467 1309.33 452 1306.51 452H1300.99ZM1376.36 448.8H1352.04V380H1376.36V389.44H1363.56V439.36H1376.36V448.8ZM1393.05 440.96C1389.42 440.96 1386.27 440.053 1383.61 438.24C1380.99 436.373 1378.97 433.787 1377.53 430.48C1376.14 427.12 1375.45 423.147 1375.45 418.56C1375.45 413.973 1376.17 410.027 1377.61 406.72C1379.05 403.36 1381.07 400.773 1383.69 398.96C1386.35 397.093 1389.47 396.16 1393.05 396.16C1396.09 396.16 1398.7 396.8 1400.89 398.08C1403.13 399.307 1404.81 401.013 1405.93 403.2V383.2H1417.93V440H1406.49L1406.25 433.68C1405.07 435.973 1403.31 437.76 1400.97 439.04C1398.67 440.32 1396.03 440.96 1393.05 440.96ZM1396.97 431.76C1398.89 431.76 1400.51 431.253 1401.85 430.24C1403.18 429.227 1404.19 427.76 1404.89 425.84C1405.58 423.867 1405.93 421.44 1405.93 418.56C1405.93 415.627 1405.58 413.2 1404.89 411.28C1404.19 409.307 1403.18 407.84 1401.85 406.88C1400.51 405.867 1398.89 405.36 1396.97 405.36C1394.14 405.36 1391.9 406.56 1390.25 408.96C1388.59 411.307 1387.77 414.507 1387.77 418.56C1387.77 422.56 1388.59 425.76 1390.25 428.16C1391.95 430.56 1394.19 431.76 1396.97 431.76ZM1435.61 440.96C1431.18 440.96 1427.56 439.947 1424.73 437.92C1421.96 435.84 1420.57 432.96 1420.57 429.28C1420.57 425.493 1421.74 422.587 1424.09 420.56C1426.49 418.48 1430.01 416.96 1434.65 416L1448.49 413.28C1448.49 410.507 1447.85 408.427 1446.57 407.04C1445.34 405.6 1443.56 404.88 1441.21 404.88C1438.92 404.88 1437.13 405.413 1435.85 406.48C1434.57 407.493 1433.74 409.013 1433.37 411.04L1421.29 410.48C1422.09 405.787 1424.2 402.24 1427.61 399.84C1431.08 397.387 1435.61 396.16 1441.21 396.16C1447.61 396.16 1452.41 397.68 1455.61 400.72C1458.86 403.76 1460.49 408.213 1460.49 414.08V428.72C1460.49 429.947 1460.68 430.773 1461.05 431.2C1461.48 431.573 1462.09 431.76 1462.89 431.76H1464.09V440C1463.72 440.107 1463.1 440.213 1462.25 440.32C1461.45 440.427 1460.65 440.48 1459.85 440.48C1458.14 440.48 1456.54 440.187 1455.05 439.6C1453.61 439.013 1452.44 438.027 1451.53 436.64C1450.62 435.2 1450.17 433.173 1450.17 430.56L1451.21 431.36C1450.68 433.28 1449.72 434.96 1448.33 436.4C1447 437.84 1445.24 438.96 1443.05 439.76C1440.92 440.56 1438.44 440.96 1435.61 440.96ZM1438.49 432.72C1440.46 432.72 1442.2 432.347 1443.69 431.6C1445.18 430.8 1446.36 429.653 1447.21 428.16C1448.06 426.667 1448.49 424.907 1448.49 422.88V420.8L1438.73 422.88C1436.81 423.253 1435.34 423.893 1434.33 424.8C1433.37 425.653 1432.89 426.773 1432.89 428.16C1432.89 429.6 1433.37 430.72 1434.33 431.52C1435.29 432.32 1436.68 432.72 1438.49 432.72ZM1474.93 440L1459.25 397.12H1471.81L1481.97 427.92L1492.05 397.12H1504.61L1488.85 440H1474.93ZM1523.82 440.96C1519.45 440.96 1515.63 440.053 1512.38 438.24C1509.18 436.373 1506.67 433.76 1504.86 430.4C1503.1 427.04 1502.22 423.093 1502.22 418.56C1502.22 414.027 1503.1 410.107 1504.86 406.8C1506.67 403.44 1509.18 400.827 1512.38 398.96C1515.58 397.093 1519.37 396.16 1523.74 396.16C1528.01 396.16 1531.71 397.093 1534.86 398.96C1538.01 400.827 1540.43 403.493 1542.14 406.96C1543.9 410.427 1544.78 414.56 1544.78 419.36V421.76H1514.62C1514.78 425.173 1515.69 427.707 1517.34 429.36C1519.05 431.013 1521.29 431.84 1524.06 431.84C1526.09 431.84 1527.77 431.413 1529.1 430.56C1530.49 429.707 1531.47 428.4 1532.06 426.64L1544.14 427.36C1543.02 431.627 1540.65 434.96 1537.02 437.36C1533.39 439.76 1528.99 440.96 1523.82 440.96ZM1514.62 414.4H1532.46C1532.3 411.253 1531.42 408.907 1529.82 407.36C1528.27 405.813 1526.25 405.04 1523.74 405.04C1521.23 405.04 1519.15 405.867 1517.5 407.52C1515.9 409.12 1514.94 411.413 1514.62 414.4ZM1558.99 440C1555.47 440 1552.72 439.12 1550.75 437.36C1548.77 435.6 1547.79 432.747 1547.79 428.8V383.2H1559.79V427.52C1559.79 428.8 1560.08 429.707 1560.67 430.24C1561.25 430.773 1562.11 431.04 1563.23 431.04H1566.11V440H1558.99ZM1586.72 440.96C1582.35 440.96 1578.54 440.053 1575.28 438.24C1572.03 436.373 1569.5 433.76 1567.68 430.4C1565.87 427.04 1564.96 423.093 1564.96 418.56C1564.96 414.027 1565.87 410.107 1567.68 406.8C1569.5 403.44 1572.03 400.827 1575.28 398.96C1578.54 397.093 1582.35 396.16 1586.72 396.16C1591.1 396.16 1594.91 397.093 1598.16 398.96C1601.42 400.827 1603.95 403.44 1605.76 406.8C1607.58 410.107 1608.48 414.027 1608.48 418.56C1608.48 423.093 1607.58 427.04 1605.76 430.4C1603.95 433.76 1601.42 436.373 1598.16 438.24C1594.91 440.053 1591.1 440.96 1586.72 440.96ZM1586.72 431.76C1589.71 431.76 1592.03 430.613 1593.68 428.32C1595.34 425.973 1596.16 422.72 1596.16 418.56C1596.16 414.4 1595.34 411.173 1593.68 408.88C1592.03 406.533 1589.71 405.36 1586.72 405.36C1583.74 405.36 1581.42 406.533 1579.76 408.88C1578.11 411.173 1577.28 414.4 1577.28 418.56C1577.28 422.72 1578.11 425.973 1579.76 428.32C1581.42 430.613 1583.74 431.76 1586.72 431.76ZM1611.15 452V397.12H1622.68L1622.92 406.16L1621.96 405.76C1623.02 402.667 1624.76 400.293 1627.16 398.64C1629.56 396.987 1632.36 396.16 1635.56 396.16C1639.56 396.16 1642.89 397.147 1645.56 399.12C1648.22 401.093 1650.22 403.787 1651.56 407.2C1652.94 410.56 1653.64 414.347 1653.64 418.56C1653.64 422.72 1652.94 426.507 1651.56 429.92C1650.22 433.333 1648.2 436.027 1645.48 438C1642.81 439.973 1639.48 440.96 1635.48 440.96C1633.4 440.96 1631.45 440.587 1629.64 439.84C1627.82 439.04 1626.25 437.947 1624.92 436.56C1623.64 435.173 1622.7 433.52 1622.12 431.6L1623.16 430.96V452H1611.15ZM1632.2 431.76C1635.02 431.76 1637.24 430.587 1638.84 428.24C1640.49 425.893 1641.32 422.667 1641.32 418.56C1641.32 414.453 1640.49 411.227 1638.84 408.88C1637.24 406.533 1635.02 405.36 1632.2 405.36C1630.33 405.36 1628.7 405.867 1627.32 406.88C1625.98 407.84 1624.94 409.307 1624.2 411.28C1623.5 413.253 1623.16 415.68 1623.16 418.56C1623.16 421.44 1623.5 423.867 1624.2 425.84C1624.94 427.813 1625.98 429.307 1627.32 430.32C1628.7 431.28 1630.33 431.76 1632.2 431.76ZM1656.28 440V397.12H1667.08L1667.48 407.44L1666.36 406.96C1666.94 404.667 1667.82 402.72 1669 401.12C1670.22 399.52 1671.69 398.293 1673.4 397.44C1675.1 396.587 1676.97 396.16 1679 396.16C1682.57 396.16 1685.45 397.2 1687.64 399.28C1689.88 401.36 1691.32 404.16 1691.96 407.68L1690.44 407.76C1690.92 405.253 1691.74 403.147 1692.92 401.44C1694.14 399.68 1695.64 398.373 1697.4 397.52C1699.16 396.613 1701.13 396.16 1703.32 396.16C1706.3 396.16 1708.86 396.773 1711 398C1713.13 399.227 1714.78 401.067 1715.96 403.52C1717.13 405.92 1717.72 408.88 1717.72 412.4V440H1705.72V415.76C1705.72 412.4 1705.21 409.893 1704.2 408.24C1703.18 406.533 1701.53 405.68 1699.24 405.68C1697.8 405.68 1696.57 406.08 1695.56 406.88C1694.54 407.68 1693.74 408.853 1693.16 410.4C1692.62 411.893 1692.36 413.733 1692.36 415.92V440H1681.56V415.92C1681.56 412.613 1681.08 410.08 1680.12 408.32C1679.16 406.56 1677.5 405.68 1675.16 405.68C1673.72 405.68 1672.46 406.08 1671.4 406.88C1670.38 407.68 1669.61 408.853 1669.08 410.4C1668.54 411.947 1668.28 413.787 1668.28 415.92V440H1656.28ZM1741.77 440.96C1737.4 440.96 1733.59 440.053 1730.33 438.24C1727.13 436.373 1724.63 433.76 1722.81 430.4C1721.05 427.04 1720.17 423.093 1720.17 418.56C1720.17 414.027 1721.05 410.107 1722.81 406.8C1724.63 403.44 1727.13 400.827 1730.33 398.96C1733.53 397.093 1737.32 396.16 1741.69 396.16C1745.96 396.16 1749.67 397.093 1752.81 398.96C1755.96 400.827 1758.39 403.493 1760.09 406.96C1761.85 410.427 1762.73 414.56 1762.73 419.36V421.76H1732.57C1732.73 425.173 1733.64 427.707 1735.29 429.36C1737 431.013 1739.24 431.84 1742.01 431.84C1744.04 431.84 1745.72 431.413 1747.05 430.56C1748.44 429.707 1749.43 428.4 1750.01 426.64L1762.09 427.36C1760.97 431.627 1758.6 434.96 1754.97 437.36C1751.35 439.76 1746.95 440.96 1741.77 440.96ZM1732.57 414.4H1750.41C1750.25 411.253 1749.37 408.907 1747.77 407.36C1746.23 405.813 1744.2 405.04 1741.69 405.04C1739.19 405.04 1737.11 405.867 1735.45 407.52C1733.85 409.12 1732.89 411.413 1732.57 414.4ZM1765.35 440V397.12H1776.15L1776.63 409.68L1775.11 409.28C1775.54 406.08 1776.39 403.52 1777.67 401.6C1779 399.68 1780.66 398.293 1782.63 397.44C1784.6 396.587 1786.76 396.16 1789.11 396.16C1792.2 396.16 1794.82 396.827 1796.95 398.16C1799.14 399.493 1800.79 401.387 1801.91 403.84C1803.08 406.24 1803.67 409.093 1803.67 412.4V440H1791.67V416.4C1791.67 414.107 1791.48 412.16 1791.11 410.56C1790.74 408.96 1790.07 407.76 1789.11 406.96C1788.15 406.107 1786.82 405.68 1785.11 405.68C1782.6 405.68 1780.68 406.613 1779.35 408.48C1778.02 410.293 1777.35 412.933 1777.35 416.4V440H1765.35ZM1824.4 440C1819.98 440 1816.72 438.987 1814.64 436.96C1812.56 434.88 1811.52 431.6 1811.52 427.12V387.04H1823.52V425.68C1823.52 427.76 1823.95 429.173 1824.8 429.92C1825.71 430.667 1827.04 431.04 1828.8 431.04H1834.8V440H1824.4ZM1804.64 406.08V397.12H1834.8V406.08H1804.64ZM1833.15 448.8V439.36H1845.95V389.44H1833.15V380H1857.47V448.8H1833.15ZM1884.56 427.2C1881.41 427.2 1878.45 426.613 1875.68 425.44C1872.96 424.213 1870.56 422.587 1868.48 420.56C1866.45 418.48 1864.85 416.08 1863.68 413.36C1862.51 410.587 1861.92 407.627 1861.92 404.48C1861.92 401.333 1862.51 398.4 1863.68 395.68C1864.85 392.96 1866.45 390.587 1868.48 388.56C1870.56 386.48 1872.96 384.853 1875.68 383.68C1878.45 382.507 1881.41 381.92 1884.56 381.92C1887.65 381.92 1890.56 382.507 1893.28 383.68C1896.05 384.853 1898.45 386.48 1900.48 388.56C1902.56 390.587 1904.19 392.96 1905.36 395.68C1906.53 398.4 1907.12 401.333 1907.12 404.48C1907.12 407.627 1906.53 410.587 1905.36 413.36C1904.19 416.08 1902.56 418.48 1900.48 420.56C1898.45 422.587 1896.05 424.213 1893.28 425.44C1890.56 426.613 1887.65 427.2 1884.56 427.2ZM1884.56 422C1887.81 422 1890.72 421.2 1893.28 419.6C1895.89 418 1897.95 415.867 1899.44 413.2C1900.99 410.533 1901.76 407.627 1901.76 404.48C1901.76 401.333 1900.99 398.453 1899.44 395.84C1897.95 393.173 1895.89 391.067 1893.28 389.52C1890.72 387.92 1887.81 387.12 1884.56 387.12C1881.31 387.12 1878.37 387.92 1875.76 389.52C1873.2 391.067 1871.15 393.173 1869.6 395.84C1868.05 398.453 1867.28 401.333 1867.28 404.48C1867.28 407.627 1868.05 410.533 1869.6 413.2C1871.15 415.867 1873.2 418 1875.76 419.6C1878.37 421.2 1881.31 422 1884.56 422ZM1875.12 416.4V392.48H1884.72C1887.76 392.48 1890.19 393.173 1892 394.56C1893.81 395.947 1894.72 397.787 1894.72 400.08C1894.72 401.68 1894.32 403.093 1893.52 404.32C1892.72 405.493 1891.57 406.347 1890.08 406.88L1895.28 416.4H1888.4L1884 407.84H1881.44V416.4H1875.12ZM1881.36 403.04H1884.16C1885.39 403.04 1886.37 402.827 1887.12 402.4C1887.87 401.92 1888.24 401.2 1888.24 400.24C1888.24 399.28 1887.87 398.587 1887.12 398.16C1886.37 397.733 1885.39 397.52 1884.16 397.52H1881.36V403.04Z" fill="#A3A3A3"/>
</svg>
