<svg width="2098" height="770" viewBox="0 0 2098 770" fill="none" xmlns="http://www.w3.org/2000/svg">
<path d="M128.6 382.5H44V124.5H128.6V155.1H80.6V351.9H128.6V382.5ZM192.5 353.1C178.9 353.1 167.1 349.7 157.1 342.9C147.3 336.1 139.7 326.4 134.3 313.8C128.9 301.2 126.2 286.4 126.2 269.4C126.2 252.4 128.9 237.6 134.3 225C139.7 212.4 147.4 202.7 157.4 195.9C167.4 189.1 179.1 185.7 192.5 185.7C203.7 185.7 213.5 188 221.9 192.6C230.5 197.2 237 203.7 241.4 212.1V136.5H279.8V349.5H243.2L242.3 325.8C237.9 334.4 231.3 341.1 222.5 345.9C213.7 350.7 203.7 353.1 192.5 353.1ZM204.2 321.9C212.2 321.9 218.9 319.9 224.3 315.9C229.9 311.9 234.1 306 236.9 298.2C239.9 290.2 241.4 280.6 241.4 269.4C241.4 258 239.9 248.4 236.9 240.6C234.1 232.8 229.9 226.9 224.3 222.9C218.9 218.9 212.2 216.9 204.2 216.9C192.6 216.9 183.3 221.6 176.3 231C169.5 240.2 166.1 253 166.1 269.4C166.1 285.4 169.5 298.2 176.3 307.8C183.3 317.2 192.6 321.9 204.2 321.9ZM347.398 353.1C330.598 353.1 317.098 349.3 306.898 341.7C296.698 333.9 291.598 323.1 291.598 309.3C291.598 295.5 295.898 284.7 304.498 276.9C313.098 269.1 326.198 263.5 343.798 260.1L396.898 249.6C396.898 238.2 394.298 229.7 389.098 224.1C383.898 218.3 376.198 215.4 365.998 215.4C356.798 215.4 349.498 217.6 344.098 222C338.898 226.2 335.298 232.3 333.298 240.3L294.298 238.5C297.498 221.5 305.298 208.5 317.698 199.5C330.098 190.3 346.198 185.7 365.998 185.7C388.798 185.7 405.998 191.5 417.598 203.1C429.398 214.5 435.298 230.9 435.298 252.3V310.5C435.298 314.7 435.998 317.6 437.398 319.2C438.998 320.8 441.298 321.6 444.298 321.6H449.398V349.5C448.198 349.9 446.198 350.2 443.398 350.4C440.798 350.6 438.098 350.7 435.298 350.7C428.698 350.7 422.798 349.7 417.598 347.7C412.398 345.5 408.398 341.8 405.598 336.6C402.798 331.2 401.398 323.9 401.398 314.7L404.698 317.1C403.098 324.1 399.598 330.4 394.198 336C388.998 341.4 382.398 345.6 374.398 348.6C366.398 351.6 357.398 353.1 347.398 353.1ZM355.198 325.2C363.798 325.2 371.198 323.5 377.398 320.1C383.598 316.7 388.398 312 391.798 306C395.198 300 396.898 292.9 396.898 284.7V275.7L355.498 284.1C346.898 285.9 340.698 288.6 336.898 292.2C333.298 295.6 331.498 300.1 331.498 305.7C331.498 311.9 333.498 316.7 337.498 320.1C341.698 323.5 347.598 325.2 355.198 325.2ZM491.347 349.5L432.847 189.3H473.347L514.147 310.8L554.947 189.3H595.447L536.947 349.5H491.347ZM665.546 353.1C649.546 353.1 635.646 349.7 623.846 342.9C612.046 335.9 602.946 326.1 596.546 313.5C590.146 300.9 586.946 286.2 586.946 269.4C586.946 252.6 590.146 238 596.546 225.6C602.946 213 611.946 203.2 623.546 196.2C635.346 189.2 649.046 185.7 664.646 185.7C679.846 185.7 693.146 189.1 704.546 195.9C716.146 202.7 725.046 212.5 731.246 225.3C737.446 238.1 740.546 253.5 740.546 271.5V280.2H626.846C627.646 294.2 631.446 304.8 638.246 312C645.246 319 654.446 322.5 665.846 322.5C674.446 322.5 681.546 320.6 687.146 316.8C692.946 312.8 696.946 307.3 699.146 300.3L738.446 302.7C734.046 318.3 725.346 330.6 712.346 339.6C699.546 348.6 683.946 353.1 665.546 353.1ZM626.846 254.4H700.946C700.146 241.4 696.446 231.8 689.846 225.6C683.246 219.2 674.846 216 664.646 216C654.446 216 645.946 219.3 639.146 225.9C632.546 232.5 628.446 242 626.846 254.4ZM792.427 349.5C780.827 349.5 771.527 346.5 764.527 340.5C757.527 334.5 754.027 324.9 754.027 311.7V136.5H792.427V307.8C792.427 311.8 793.427 314.8 795.427 316.8C797.627 318.8 800.627 319.8 804.427 319.8H816.127V349.5H792.427ZM892.346 353.1C876.546 353.1 862.646 349.7 850.646 342.9C838.846 335.9 829.646 326.1 823.046 313.5C816.646 300.9 813.446 286.2 813.446 269.4C813.446 252.4 816.646 237.7 823.046 225.3C829.646 212.7 838.846 203 850.646 196.2C862.646 189.2 876.546 185.7 892.346 185.7C908.146 185.7 921.946 189.2 933.746 196.2C945.546 203 954.646 212.7 961.046 225.3C967.646 237.7 970.946 252.4 970.946 269.4C970.946 286.2 967.646 300.9 961.046 313.5C954.646 326.1 945.546 335.9 933.746 342.9C921.946 349.7 908.146 353.1 892.346 353.1ZM892.346 321.9C904.746 321.9 914.246 317.3 920.846 308.1C927.646 298.9 931.046 286 931.046 269.4C931.046 253 927.646 240.2 920.846 231C914.246 221.6 904.746 216.9 892.346 216.9C879.946 216.9 870.346 221.6 863.546 231C856.746 240.2 853.346 253 853.346 269.4C853.346 286 856.746 298.9 863.546 308.1C870.346 317.3 879.946 321.9 892.346 321.9ZM982.578 394.5V189.3H1019.48L1020.38 223.5L1016.48 221.7C1020.48 209.9 1026.98 201 1035.98 195C1045.18 188.8 1055.88 185.7 1068.08 185.7C1083.28 185.7 1095.88 189.5 1105.88 197.1C1116.08 204.7 1123.68 214.8 1128.68 227.4C1133.68 240 1136.18 254 1136.18 269.4C1136.18 284.8 1133.58 298.8 1128.38 311.4C1123.38 324 1115.78 334.1 1105.58 341.7C1095.58 349.3 1082.98 353.1 1067.78 353.1C1059.78 353.1 1052.28 351.7 1045.28 348.9C1038.48 346.1 1032.58 342.1 1027.58 336.9C1022.78 331.7 1019.38 325.6 1017.38 318.6L1020.98 315.6V394.5H982.578ZM1058.78 321.9C1070.38 321.9 1079.48 317.3 1086.08 308.1C1092.88 298.7 1096.28 285.8 1096.28 269.4C1096.28 253 1092.88 240.2 1086.08 231C1079.48 221.6 1070.38 216.9 1058.78 216.9C1050.98 216.9 1044.28 218.9 1038.68 222.9C1033.08 226.7 1028.68 232.5 1025.48 240.3C1022.48 248.1 1020.98 257.8 1020.98 269.4C1020.98 281 1022.48 290.7 1025.48 298.5C1028.48 306.3 1032.78 312.2 1038.38 316.2C1044.18 320 1050.98 321.9 1058.78 321.9ZM1147.98 349.5V189.3H1182.78L1183.98 228.6L1180.38 226.8C1182.18 218.2 1185.28 210.9 1189.68 204.9C1194.28 198.7 1199.78 194 1206.18 190.8C1212.78 187.4 1219.98 185.7 1227.78 185.7C1241.38 185.7 1252.38 189.6 1260.78 197.4C1269.18 205 1274.48 215.5 1276.68 228.9H1271.58C1273.38 219.5 1276.48 211.7 1280.88 205.5C1285.28 199.1 1290.78 194.2 1297.38 190.8C1304.18 187.4 1311.78 185.7 1320.18 185.7C1331.18 185.7 1340.68 188.1 1348.68 192.9C1356.68 197.5 1362.78 204.3 1366.98 213.3C1371.38 222.3 1373.58 233.4 1373.58 246.6V349.5H1335.18V256.5C1335.18 243.3 1332.88 233.4 1328.28 226.8C1323.88 220.2 1317.08 216.9 1307.88 216.9C1301.68 216.9 1296.38 218.5 1291.98 221.7C1287.58 224.9 1284.18 229.6 1281.78 235.8C1279.58 241.8 1278.48 249.1 1278.48 257.7V349.5H1242.78V257.7C1242.78 244.5 1240.78 234.4 1236.78 227.4C1232.78 220.4 1225.88 216.9 1216.08 216.9C1209.88 216.9 1204.58 218.5 1200.18 221.7C1195.98 224.9 1192.58 229.6 1189.98 235.8C1187.58 241.8 1186.38 249.1 1186.38 257.7V349.5H1147.98ZM1462.95 353.1C1446.95 353.1 1433.05 349.7 1421.25 342.9C1409.45 335.9 1400.35 326.1 1393.95 313.5C1387.55 300.9 1384.35 286.2 1384.35 269.4C1384.35 252.6 1387.55 238 1393.95 225.6C1400.35 213 1409.35 203.2 1420.95 196.2C1432.75 189.2 1446.45 185.7 1462.05 185.7C1477.25 185.7 1490.55 189.1 1501.95 195.9C1513.55 202.7 1522.45 212.5 1528.65 225.3C1534.85 238.1 1537.95 253.5 1537.95 271.5V280.2H1424.25C1425.05 294.2 1428.85 304.8 1435.65 312C1442.65 319 1451.85 322.5 1463.25 322.5C1471.85 322.5 1478.95 320.6 1484.55 316.8C1490.35 312.8 1494.35 307.3 1496.55 300.3L1535.85 302.7C1531.45 318.3 1522.75 330.6 1509.75 339.6C1496.95 348.6 1481.35 353.1 1462.95 353.1ZM1424.25 254.4H1498.35C1497.55 241.4 1493.85 231.8 1487.25 225.6C1480.65 219.2 1472.25 216 1462.05 216C1451.85 216 1443.35 219.3 1436.55 225.9C1429.95 232.5 1425.85 242 1424.25 254.4ZM1549.96 349.5V189.3H1584.76L1586.26 234.3L1581.76 232.5C1583.36 221.3 1586.66 212.3 1591.66 205.5C1596.66 198.7 1602.76 193.7 1609.96 190.5C1617.16 187.3 1625.06 185.7 1633.66 185.7C1645.46 185.7 1655.36 188.3 1663.36 193.5C1671.56 198.7 1677.76 205.9 1681.96 215.1C1686.16 224.1 1688.26 234.6 1688.26 246.6V349.5H1649.86V258.9C1649.86 249.9 1648.96 242.3 1647.16 236.1C1645.36 229.9 1642.36 225.2 1638.16 222C1634.16 218.6 1628.76 216.9 1621.96 216.9C1611.76 216.9 1603.56 220.5 1597.36 227.7C1591.36 234.9 1588.36 245.3 1588.36 258.9V349.5H1549.96ZM1765.21 349.5C1749.21 349.5 1737.41 345.8 1729.81 338.4C1722.41 331 1718.71 319.4 1718.71 303.6V151.8H1757.11V300C1757.11 307.4 1758.71 312.6 1761.91 315.6C1765.11 318.4 1770.11 319.8 1776.91 319.8H1799.41V349.5H1765.21ZM1693.51 219V189.3H1799.41V219H1693.51ZM1793.94 382.5V351.9H1841.94V155.1H1793.94V124.5H1878.54V382.5H1793.94ZM1981.14 299.4C1969.54 299.4 1958.64 297.3 1948.44 293.1C1938.44 288.7 1929.54 282.7 1921.74 275.1C1914.14 267.3 1908.14 258.3 1903.74 248.1C1899.54 237.9 1897.44 227 1897.44 215.4C1897.44 203.8 1899.54 193 1903.74 183C1908.14 172.8 1914.14 163.9 1921.74 156.3C1929.54 148.5 1938.44 142.5 1948.44 138.3C1958.64 133.9 1969.54 131.7 1981.14 131.7C1992.94 131.7 2003.84 133.9 2013.84 138.3C2023.84 142.5 2032.64 148.5 2040.24 156.3C2048.04 163.9 2054.04 172.8 2058.24 183C2062.64 193 2064.84 203.8 2064.84 215.4C2064.84 227 2062.64 237.9 2058.24 248.1C2054.04 258.3 2048.04 267.3 2040.24 275.1C2032.64 282.7 2023.84 288.7 2013.84 293.1C2003.84 297.3 1992.94 299.4 1981.14 299.4ZM1981.14 280.8C1993.74 280.8 2004.84 277.9 2014.44 272.1C2024.04 266.1 2031.64 258.1 2037.24 248.1C2042.84 238.1 2045.64 227.2 2045.64 215.4C2045.64 203.6 2042.84 192.8 2037.24 183C2031.64 173.2 2024.04 165.4 2014.44 159.6C2004.84 153.6 1993.74 150.6 1981.14 150.6C1968.94 150.6 1957.94 153.6 1948.14 159.6C1938.34 165.4 1930.64 173.2 1925.04 183C1919.44 192.8 1916.64 203.6 1916.64 215.4C1916.64 227.2 1919.44 238.1 1925.04 248.1C1930.64 258.1 1938.34 266.1 1948.14 272.1C1957.94 277.9 1968.94 280.8 1981.14 280.8ZM1946.94 260.1V170.4H1980.84C1992.24 170.4 2001.24 173 2007.84 178.2C2014.64 183.2 2018.04 190.1 2018.04 198.9C2018.04 204.7 2016.44 209.9 2013.24 214.5C2010.24 219.1 2005.74 222.3 1999.74 224.1L2020.74 260.1H1997.34L1979.34 227.1H1968.24V260.1H1946.94ZM1967.94 210.3H1980.24C1985.24 210.3 1989.14 209.4 1991.94 207.6C1994.94 205.6 1996.44 202.7 1996.44 198.9C1996.44 195.3 1994.94 192.6 1991.94 190.8C1989.14 189 1985.24 188.1 1980.24 188.1H1967.94V210.3Z" fill="#3B3B3B"/>
<rect x="1226" y="401.5" width="852" height="321" rx="30" fill="#FFD85F"/>
<path d="M1283.16 635.5V479.96H1346.96C1354.15 479.96 1360.75 480.62 1366.76 481.94C1372.92 483.113 1378.2 485.24 1382.6 488.32C1387.15 491.4 1390.67 495.507 1393.16 500.64C1395.65 505.773 1396.9 512.153 1396.9 519.78C1396.9 526.82 1395.29 533.273 1392.06 539.14C1388.83 544.86 1384.07 549.187 1377.76 552.12C1386.27 554.32 1392.79 558.573 1397.34 564.88C1401.89 571.04 1404.16 579.107 1404.16 589.08C1404.16 598.027 1402.47 605.507 1399.1 611.52C1395.87 617.387 1391.33 622.08 1385.46 625.6C1379.74 629.12 1373.07 631.687 1365.44 633.3C1357.81 634.767 1349.67 635.5 1341.02 635.5H1283.16ZM1310.66 610.42H1343.44C1347.55 610.42 1351.58 610.127 1355.54 609.54C1359.5 608.953 1363.09 607.927 1366.32 606.46C1369.55 604.993 1372.04 602.867 1373.8 600.08C1375.71 597.147 1376.66 593.407 1376.66 588.86C1376.66 584.753 1375.93 581.38 1374.46 578.74C1372.99 576.1 1370.94 574.047 1368.3 572.58C1365.81 570.967 1362.8 569.867 1359.28 569.28C1355.76 568.547 1352.09 568.18 1348.28 568.18H1310.66V610.42ZM1310.66 545.08H1339.7C1344.25 545.08 1348.35 544.64 1352.02 543.76C1355.69 542.88 1358.84 541.56 1361.48 539.8C1364.12 537.893 1366.17 535.62 1367.64 532.98C1369.11 530.193 1369.84 526.82 1369.84 522.86C1369.84 517.727 1368.67 513.913 1366.32 511.42C1363.97 508.78 1360.75 507.093 1356.64 506.36C1352.68 505.48 1348.21 505.04 1343.22 505.04H1310.66V545.08ZM1465.97 637.04C1454.09 637.04 1443.82 634.62 1435.17 629.78C1426.66 624.94 1420.06 618.047 1415.37 609.1C1410.82 600.153 1408.55 589.667 1408.55 577.64C1408.55 565.467 1410.89 554.98 1415.59 546.18C1420.28 537.233 1426.88 530.267 1435.39 525.28C1443.89 520.293 1454.09 517.8 1465.97 517.8C1477.7 517.8 1487.82 520.293 1496.33 525.28C1504.83 530.267 1511.36 537.307 1515.91 546.4C1520.45 555.347 1522.73 565.907 1522.73 578.08C1522.73 589.96 1520.45 600.373 1515.91 609.32C1511.51 618.12 1505.05 624.94 1496.55 629.78C1488.04 634.62 1477.85 637.04 1465.97 637.04ZM1465.75 612.62C1473.08 612.62 1478.95 611.007 1483.35 607.78C1487.89 604.553 1491.19 600.3 1493.25 595.02C1495.3 589.74 1496.33 584.02 1496.33 577.86C1496.33 571.7 1495.3 565.907 1493.25 560.48C1491.19 555.053 1487.89 550.727 1483.35 547.5C1478.95 544.127 1473.08 542.44 1465.75 542.44C1458.41 542.44 1452.47 544.127 1447.93 547.5C1443.38 550.727 1440.08 555.053 1438.03 560.48C1435.97 565.76 1434.95 571.553 1434.95 577.86C1434.95 584.02 1435.97 589.813 1438.03 595.24C1440.23 600.52 1443.53 604.773 1447.93 608C1452.47 611.08 1458.41 612.62 1465.75 612.62ZM1584.04 637.04C1572.16 637.04 1561.89 634.62 1553.24 629.78C1544.73 624.94 1538.13 618.047 1533.44 609.1C1528.89 600.153 1526.62 589.667 1526.62 577.64C1526.62 565.467 1528.96 554.98 1533.66 546.18C1538.35 537.233 1544.95 530.267 1553.46 525.28C1561.96 520.293 1572.16 517.8 1584.04 517.8C1595.77 517.8 1605.89 520.293 1614.4 525.28C1622.9 530.267 1629.43 537.307 1633.98 546.4C1638.52 555.347 1640.8 565.907 1640.8 578.08C1640.8 589.96 1638.52 600.373 1633.98 609.32C1629.58 618.12 1623.12 624.94 1614.62 629.78C1606.11 634.62 1595.92 637.04 1584.04 637.04ZM1583.82 612.62C1591.15 612.62 1597.02 611.007 1601.42 607.78C1605.96 604.553 1609.26 600.3 1611.32 595.02C1613.37 589.74 1614.4 584.02 1614.4 577.86C1614.4 571.7 1613.37 565.907 1611.32 560.48C1609.26 555.053 1605.96 550.727 1601.42 547.5C1597.02 544.127 1591.15 542.44 1583.82 542.44C1576.48 542.44 1570.54 544.127 1566 547.5C1561.45 550.727 1558.15 555.053 1556.1 560.48C1554.04 565.76 1553.02 571.553 1553.02 577.86C1553.02 584.02 1554.04 589.813 1556.1 595.24C1558.3 600.52 1561.6 604.773 1566 608C1570.54 611.08 1576.48 612.62 1583.82 612.62ZM1649.09 635.5V479.96H1675.93V565.98H1692.65L1723.23 519.56H1753.37L1715.75 574.78L1756.45 635.5H1725.21L1694.19 589.52H1675.93V635.5H1649.09ZM1755.98 635.5V519.56H1782.82V635.5H1755.98ZM1769.4 506.14C1764.27 506.14 1760.16 504.6 1757.08 501.52C1754 498.44 1752.46 494.407 1752.46 489.42C1752.46 484.58 1754.08 480.62 1757.3 477.54C1760.53 474.313 1764.56 472.7 1769.4 472.7C1774.1 472.7 1778.13 474.24 1781.5 477.32C1784.88 480.4 1786.56 484.433 1786.56 489.42C1786.56 494.407 1784.95 498.44 1781.72 501.52C1778.5 504.6 1774.39 506.14 1769.4 506.14ZM1795.64 635.5V519.56H1820.72L1822.26 534.3C1825.34 530.193 1828.93 526.967 1833.04 524.62C1837.14 522.273 1841.47 520.587 1846.02 519.56C1850.56 518.387 1854.82 517.8 1858.78 517.8C1869.78 517.8 1878.43 520.22 1884.74 525.06C1891.19 529.9 1895.74 536.353 1898.38 544.42C1901.02 552.487 1902.34 561.507 1902.34 571.48V635.5H1875.5V575.88C1875.5 571.627 1875.2 567.52 1874.62 563.56C1874.03 559.453 1872.86 555.787 1871.1 552.56C1869.48 549.333 1867.14 546.767 1864.06 544.86C1860.98 542.953 1856.87 542 1851.74 542C1845.43 542 1840.08 543.687 1835.68 547.06C1831.28 550.433 1827.98 554.98 1825.78 560.7C1823.58 566.273 1822.48 572.653 1822.48 579.84V635.5H1795.64ZM1968.25 688.52C1959.74 688.52 1951.75 687.127 1944.27 684.34C1936.94 681.7 1930.7 677.447 1925.57 671.58C1920.58 665.86 1917.21 658.453 1915.45 649.36H1942.95C1943.83 652.88 1945.59 655.74 1948.23 657.94C1950.87 660.14 1953.95 661.68 1957.47 662.56C1961.14 663.587 1964.88 664.1 1968.69 664.1C1975.88 664.1 1981.52 662.633 1985.63 659.7C1989.88 656.767 1992.89 652.733 1994.65 647.6C1996.41 642.613 1997.29 637.113 1997.29 631.1V620.1C1994.65 624.353 1991.28 627.727 1987.17 630.22C1983.21 632.713 1978.96 634.473 1974.41 635.5C1970.01 636.38 1965.61 636.82 1961.21 636.82C1949.18 636.82 1939.36 634.18 1931.73 628.9C1924.25 623.62 1918.75 616.58 1915.23 607.78C1911.71 598.833 1909.95 589.007 1909.95 578.3C1909.95 567.153 1911.86 557.033 1915.67 547.94C1919.63 538.7 1925.5 531.367 1933.27 525.94C1941.19 520.513 1951.09 517.8 1962.97 517.8C1969.86 517.8 1976.32 519.047 1982.33 521.54C1988.49 523.887 1993.62 527.48 1997.73 532.32L1999.49 519.56H2024.35V625.38C2024.35 638.433 2022.44 649.653 2018.63 659.04C2014.96 668.573 2009.02 675.833 2000.81 680.82C1992.6 685.953 1981.74 688.52 1968.25 688.52ZM1966.71 613.06C1973.6 613.06 1979.32 611.447 1983.87 608.22C1988.42 604.847 1991.86 600.447 1994.21 595.02C1996.56 589.447 1997.73 583.433 1997.73 576.98C1997.73 570.38 1996.56 564.44 1994.21 559.16C1992.01 553.88 1988.64 549.7 1984.09 546.62C1979.69 543.54 1973.97 542 1966.93 542C1959.45 542 1953.51 543.687 1949.11 547.06C1944.71 550.433 1941.48 554.907 1939.43 560.48C1937.52 565.907 1936.57 571.7 1936.57 577.86C1936.57 584.313 1937.6 590.253 1939.65 595.68C1941.7 600.96 1944.93 605.213 1949.33 608.44C1953.73 611.52 1959.52 613.06 1966.71 613.06Z" fill="#3B3B3B"/>
<path d="M1283.16 635.5V479.96H1346.96C1354.15 479.96 1360.75 480.62 1366.76 481.94C1372.92 483.113 1378.2 485.24 1382.6 488.32C1387.15 491.4 1390.67 495.507 1393.16 500.64C1395.65 505.773 1396.9 512.153 1396.9 519.78C1396.9 526.82 1395.29 533.273 1392.06 539.14C1388.83 544.86 1384.07 549.187 1377.76 552.12C1386.27 554.32 1392.79 558.573 1397.34 564.88C1401.89 571.04 1404.16 579.107 1404.16 589.08C1404.16 598.027 1402.47 605.507 1399.1 611.52C1395.87 617.387 1391.33 622.08 1385.46 625.6C1379.74 629.12 1373.07 631.687 1365.44 633.3C1357.81 634.767 1349.67 635.5 1341.02 635.5H1283.16ZM1310.66 610.42H1343.44C1347.55 610.42 1351.58 610.127 1355.54 609.54C1359.5 608.953 1363.09 607.927 1366.32 606.46C1369.55 604.993 1372.04 602.867 1373.8 600.08C1375.71 597.147 1376.66 593.407 1376.66 588.86C1376.66 584.753 1375.93 581.38 1374.46 578.74C1372.99 576.1 1370.94 574.047 1368.3 572.58C1365.81 570.967 1362.8 569.867 1359.28 569.28C1355.76 568.547 1352.09 568.18 1348.28 568.18H1310.66V610.42ZM1310.66 545.08H1339.7C1344.25 545.08 1348.35 544.64 1352.02 543.76C1355.69 542.88 1358.84 541.56 1361.48 539.8C1364.12 537.893 1366.17 535.62 1367.64 532.98C1369.11 530.193 1369.84 526.82 1369.84 522.86C1369.84 517.727 1368.67 513.913 1366.32 511.42C1363.97 508.78 1360.75 507.093 1356.64 506.36C1352.68 505.48 1348.21 505.04 1343.22 505.04H1310.66V545.08ZM1465.97 637.04C1454.09 637.04 1443.82 634.62 1435.17 629.78C1426.66 624.94 1420.06 618.047 1415.37 609.1C1410.82 600.153 1408.55 589.667 1408.55 577.64C1408.55 565.467 1410.89 554.98 1415.59 546.18C1420.28 537.233 1426.88 530.267 1435.39 525.28C1443.89 520.293 1454.09 517.8 1465.97 517.8C1477.7 517.8 1487.82 520.293 1496.33 525.28C1504.83 530.267 1511.36 537.307 1515.91 546.4C1520.45 555.347 1522.73 565.907 1522.73 578.08C1522.73 589.96 1520.45 600.373 1515.91 609.32C1511.51 618.12 1505.05 624.94 1496.55 629.78C1488.04 634.62 1477.85 637.04 1465.97 637.04ZM1465.75 612.62C1473.08 612.62 1478.95 611.007 1483.35 607.78C1487.89 604.553 1491.19 600.3 1493.25 595.02C1495.3 589.74 1496.33 584.02 1496.33 577.86C1496.33 571.7 1495.3 565.907 1493.25 560.48C1491.19 555.053 1487.89 550.727 1483.35 547.5C1478.95 544.127 1473.08 542.44 1465.75 542.44C1458.41 542.44 1452.47 544.127 1447.93 547.5C1443.38 550.727 1440.08 555.053 1438.03 560.48C1435.97 565.76 1434.95 571.553 1434.95 577.86C1434.95 584.02 1435.97 589.813 1438.03 595.24C1440.23 600.52 1443.53 604.773 1447.93 608C1452.47 611.08 1458.41 612.62 1465.75 612.62ZM1584.04 637.04C1572.16 637.04 1561.89 634.62 1553.24 629.78C1544.73 624.94 1538.13 618.047 1533.44 609.1C1528.89 600.153 1526.62 589.667 1526.62 577.64C1526.62 565.467 1528.96 554.98 1533.66 546.18C1538.35 537.233 1544.95 530.267 1553.46 525.28C1561.96 520.293 1572.16 517.8 1584.04 517.8C1595.77 517.8 1605.89 520.293 1614.4 525.28C1622.9 530.267 1629.43 537.307 1633.98 546.4C1638.52 555.347 1640.8 565.907 1640.8 578.08C1640.8 589.96 1638.52 600.373 1633.98 609.32C1629.58 618.12 1623.12 624.94 1614.62 629.78C1606.11 634.62 1595.92 637.04 1584.04 637.04ZM1583.82 612.62C1591.15 612.62 1597.02 611.007 1601.42 607.78C1605.96 604.553 1609.26 600.3 1611.32 595.02C1613.37 589.74 1614.4 584.02 1614.4 577.86C1614.4 571.7 1613.37 565.907 1611.32 560.48C1609.26 555.053 1605.96 550.727 1601.42 547.5C1597.02 544.127 1591.15 542.44 1583.82 542.44C1576.48 542.44 1570.54 544.127 1566 547.5C1561.45 550.727 1558.15 555.053 1556.1 560.48C1554.04 565.76 1553.02 571.553 1553.02 577.86C1553.02 584.02 1554.04 589.813 1556.1 595.24C1558.3 600.52 1561.6 604.773 1566 608C1570.54 611.08 1576.48 612.62 1583.82 612.62ZM1649.09 635.5V479.96H1675.93V565.98H1692.65L1723.23 519.56H1753.37L1715.75 574.78L1756.45 635.5H1725.21L1694.19 589.52H1675.93V635.5H1649.09ZM1755.98 635.5V519.56H1782.82V635.5H1755.98ZM1769.4 506.14C1764.27 506.14 1760.16 504.6 1757.08 501.52C1754 498.44 1752.46 494.407 1752.46 489.42C1752.46 484.58 1754.08 480.62 1757.3 477.54C1760.53 474.313 1764.56 472.7 1769.4 472.7C1774.1 472.7 1778.13 474.24 1781.5 477.32C1784.88 480.4 1786.56 484.433 1786.56 489.42C1786.56 494.407 1784.95 498.44 1781.72 501.52C1778.5 504.6 1774.39 506.14 1769.4 506.14ZM1795.64 635.5V519.56H1820.72L1822.26 534.3C1825.34 530.193 1828.93 526.967 1833.04 524.62C1837.14 522.273 1841.47 520.587 1846.02 519.56C1850.56 518.387 1854.82 517.8 1858.78 517.8C1869.78 517.8 1878.43 520.22 1884.74 525.06C1891.19 529.9 1895.74 536.353 1898.38 544.42C1901.02 552.487 1902.34 561.507 1902.34 571.48V635.5H1875.5V575.88C1875.5 571.627 1875.2 567.52 1874.62 563.56C1874.03 559.453 1872.86 555.787 1871.1 552.56C1869.48 549.333 1867.14 546.767 1864.06 544.86C1860.98 542.953 1856.87 542 1851.74 542C1845.43 542 1840.08 543.687 1835.68 547.06C1831.28 550.433 1827.98 554.98 1825.78 560.7C1823.58 566.273 1822.48 572.653 1822.48 579.84V635.5H1795.64ZM1968.25 688.52C1959.74 688.52 1951.75 687.127 1944.27 684.34C1936.94 681.7 1930.7 677.447 1925.57 671.58C1920.58 665.86 1917.21 658.453 1915.45 649.36H1942.95C1943.83 652.88 1945.59 655.74 1948.23 657.94C1950.87 660.14 1953.95 661.68 1957.47 662.56C1961.14 663.587 1964.88 664.1 1968.69 664.1C1975.88 664.1 1981.52 662.633 1985.63 659.7C1989.88 656.767 1992.89 652.733 1994.65 647.6C1996.41 642.613 1997.29 637.113 1997.29 631.1V620.1C1994.65 624.353 1991.28 627.727 1987.17 630.22C1983.21 632.713 1978.96 634.473 1974.41 635.5C1970.01 636.38 1965.61 636.82 1961.21 636.82C1949.18 636.82 1939.36 634.18 1931.73 628.9C1924.25 623.62 1918.75 616.58 1915.23 607.78C1911.71 598.833 1909.95 589.007 1909.95 578.3C1909.95 567.153 1911.86 557.033 1915.67 547.94C1919.63 538.7 1925.5 531.367 1933.27 525.94C1941.19 520.513 1951.09 517.8 1962.97 517.8C1969.86 517.8 1976.32 519.047 1982.33 521.54C1988.49 523.887 1993.62 527.48 1997.73 532.32L1999.49 519.56H2024.35V625.38C2024.35 638.433 2022.44 649.653 2018.63 659.04C2014.96 668.573 2009.02 675.833 2000.81 680.82C1992.6 685.953 1981.74 688.52 1968.25 688.52ZM1966.71 613.06C1973.6 613.06 1979.32 611.447 1983.87 608.22C1988.42 604.847 1991.86 600.447 1994.21 595.02C1996.56 589.447 1997.73 583.433 1997.73 576.98C1997.73 570.38 1996.56 564.44 1994.21 559.16C1992.01 553.88 1988.64 549.7 1984.09 546.62C1979.69 543.54 1973.97 542 1966.93 542C1959.45 542 1953.51 543.687 1949.11 547.06C1944.71 550.433 1941.48 554.907 1939.43 560.48C1937.52 565.907 1936.57 571.7 1936.57 577.86C1936.57 584.313 1937.6 590.253 1939.65 595.68C1941.7 600.96 1944.93 605.213 1949.33 608.44C1953.73 611.52 1959.52 613.06 1966.71 613.06Z" fill="black" fill-opacity="0.2"/>
</svg>
